<?xml version="1.0" encoding="utf-8" standalone="no"?>
<!DOCTYPE svg PUBLIC "-//W3C//DTD SVG 1.1//EN"
  "http://www.w3.org/Graphics/SVG/1.1/DTD/svg11.dtd">
<svg xmlns:xlink="http://www.w3.org/1999/xlink" width="388.192813pt" height="235.01625pt" viewBox="0 0 388.192813 235.01625" xmlns="http://www.w3.org/2000/svg" version="1.1">
 <metadata>
  <rdf:RDF xmlns:dc="http://purl.org/dc/elements/1.1/" xmlns:cc="http://creativecommons.org/ns#" xmlns:rdf="http://www.w3.org/1999/02/22-rdf-syntax-ns#">
   <cc:Work>
    <dc:type rdf:resource="http://purl.org/dc/dcmitype/StillImage"/>
    <dc:date>2024-09-05T15:45:29.920107</dc:date>
    <dc:format>image/svg+xml</dc:format>
    <dc:creator>
     <cc:Agent>
      <dc:title>Matplotlib v3.7.3, https://matplotlib.org/</dc:title>
     </cc:Agent>
    </dc:creator>
   </cc:Work>
  </rdf:RDF>
 </metadata>
 <defs>
  <style type="text/css">*{stroke-linejoin: round; stroke-linecap: butt}</style>
 </defs>
 <g id="figure_1">
  <g id="patch_1">
   <path d="M 0 235.01625 
L 388.192813 235.01625 
L 388.192813 0 
L 0 0 
L 0 235.01625 
z
" style="fill: none"/>
  </g>
  <g id="axes_1">
   <g id="patch_2">
    <path d="M 48.982813 197.46 
L 380.992813 197.46 
L 380.992813 7.2 
L 48.982813 7.2 
z
" style="fill: #ffffff"/>
   </g>
   <g id="matplotlib.axis_1">
    <g id="xtick_1">
     <g id="line2d_1">
      <defs>
       <path id="m5125c7395e" d="M 0 0 
L 0 3.5 
" style="stroke: #000000; stroke-width: 0.8"/>
      </defs>
      <g>
       <use xlink:href="#m5125c7395e" x="69.733437" y="197.46" style="stroke: #000000; stroke-width: 0.8"/>
      </g>
     </g>
     <g id="text_1">
      <!-- −3 -->
      <g transform="translate(62.362344 212.058437) scale(0.1 -0.1)">
       <defs>
        <path id="DejaVuSans-2212" d="M 678 2272 
L 4684 2272 
L 4684 1741 
L 678 1741 
L 678 2272 
z
" transform="scale(0.015625)"/>
        <path id="DejaVuSans-33" d="M 2597 2516 
Q 3050 2419 3304 2112 
Q 3559 1806 3559 1356 
Q 3559 666 3084 287 
Q 2609 -91 1734 -91 
Q 1441 -91 1130 -33 
Q 819 25 488 141 
L 488 750 
Q 750 597 1062 519 
Q 1375 441 1716 441 
Q 2309 441 2620 675 
Q 2931 909 2931 1356 
Q 2931 1769 2642 2001 
Q 2353 2234 1838 2234 
L 1294 2234 
L 1294 2753 
L 1863 2753 
Q 2328 2753 2575 2939 
Q 2822 3125 2822 3475 
Q 2822 3834 2567 4026 
Q 2313 4219 1838 4219 
Q 1578 4219 1281 4162 
Q 984 4106 628 3988 
L 628 4550 
Q 988 4650 1302 4700 
Q 1616 4750 1894 4750 
Q 2613 4750 3031 4423 
Q 3450 4097 3450 3541 
Q 3450 3153 3228 2886 
Q 3006 2619 2597 2516 
z
" transform="scale(0.015625)"/>
       </defs>
       <use xlink:href="#DejaVuSans-2212"/>
       <use xlink:href="#DejaVuSans-33" x="83.789062"/>
      </g>
     </g>
    </g>
    <g id="xtick_2">
     <g id="line2d_2">
      <g>
       <use xlink:href="#m5125c7395e" x="111.234687" y="197.46" style="stroke: #000000; stroke-width: 0.8"/>
      </g>
     </g>
     <g id="text_2">
      <!-- −2 -->
      <g transform="translate(103.863594 212.058437) scale(0.1 -0.1)">
       <defs>
        <path id="DejaVuSans-32" d="M 1228 531 
L 3431 531 
L 3431 0 
L 469 0 
L 469 531 
Q 828 903 1448 1529 
Q 2069 2156 2228 2338 
Q 2531 2678 2651 2914 
Q 2772 3150 2772 3378 
Q 2772 3750 2511 3984 
Q 2250 4219 1831 4219 
Q 1534 4219 1204 4116 
Q 875 4013 500 3803 
L 500 4441 
Q 881 4594 1212 4672 
Q 1544 4750 1819 4750 
Q 2544 4750 2975 4387 
Q 3406 4025 3406 3419 
Q 3406 3131 3298 2873 
Q 3191 2616 2906 2266 
Q 2828 2175 2409 1742 
Q 1991 1309 1228 531 
z
" transform="scale(0.015625)"/>
       </defs>
       <use xlink:href="#DejaVuSans-2212"/>
       <use xlink:href="#DejaVuSans-32" x="83.789062"/>
      </g>
     </g>
    </g>
    <g id="xtick_3">
     <g id="line2d_3">
      <g>
       <use xlink:href="#m5125c7395e" x="152.735938" y="197.46" style="stroke: #000000; stroke-width: 0.8"/>
      </g>
     </g>
     <g id="text_3">
      <!-- −1 -->
      <g transform="translate(145.364844 212.058437) scale(0.1 -0.1)">
       <defs>
        <path id="DejaVuSans-31" d="M 794 531 
L 1825 531 
L 1825 4091 
L 703 3866 
L 703 4441 
L 1819 4666 
L 2450 4666 
L 2450 531 
L 3481 531 
L 3481 0 
L 794 0 
L 794 531 
z
" transform="scale(0.015625)"/>
       </defs>
       <use xlink:href="#DejaVuSans-2212"/>
       <use xlink:href="#DejaVuSans-31" x="83.789062"/>
      </g>
     </g>
    </g>
    <g id="xtick_4">
     <g id="line2d_4">
      <g>
       <use xlink:href="#m5125c7395e" x="194.237188" y="197.46" style="stroke: #000000; stroke-width: 0.8"/>
      </g>
     </g>
     <g id="text_4">
      <!-- 0 -->
      <g transform="translate(191.055937 212.058437) scale(0.1 -0.1)">
       <defs>
        <path id="DejaVuSans-30" d="M 2034 4250 
Q 1547 4250 1301 3770 
Q 1056 3291 1056 2328 
Q 1056 1369 1301 889 
Q 1547 409 2034 409 
Q 2525 409 2770 889 
Q 3016 1369 3016 2328 
Q 3016 3291 2770 3770 
Q 2525 4250 2034 4250 
z
M 2034 4750 
Q 2819 4750 3233 4129 
Q 3647 3509 3647 2328 
Q 3647 1150 3233 529 
Q 2819 -91 2034 -91 
Q 1250 -91 836 529 
Q 422 1150 422 2328 
Q 422 3509 836 4129 
Q 1250 4750 2034 4750 
z
" transform="scale(0.015625)"/>
       </defs>
       <use xlink:href="#DejaVuSans-30"/>
      </g>
     </g>
    </g>
    <g id="xtick_5">
     <g id="line2d_5">
      <g>
       <use xlink:href="#m5125c7395e" x="235.738438" y="197.46" style="stroke: #000000; stroke-width: 0.8"/>
      </g>
     </g>
     <g id="text_5">
      <!-- 1 -->
      <g transform="translate(232.557187 212.058437) scale(0.1 -0.1)">
       <use xlink:href="#DejaVuSans-31"/>
      </g>
     </g>
    </g>
    <g id="xtick_6">
     <g id="line2d_6">
      <g>
       <use xlink:href="#m5125c7395e" x="277.239688" y="197.46" style="stroke: #000000; stroke-width: 0.8"/>
      </g>
     </g>
     <g id="text_6">
      <!-- 2 -->
      <g transform="translate(274.058438 212.058437) scale(0.1 -0.1)">
       <use xlink:href="#DejaVuSans-32"/>
      </g>
     </g>
    </g>
    <g id="xtick_7">
     <g id="line2d_7">
      <g>
       <use xlink:href="#m5125c7395e" x="318.740938" y="197.46" style="stroke: #000000; stroke-width: 0.8"/>
      </g>
     </g>
     <g id="text_7">
      <!-- 3 -->
      <g transform="translate(315.559688 212.058437) scale(0.1 -0.1)">
       <use xlink:href="#DejaVuSans-33"/>
      </g>
     </g>
    </g>
    <g id="xtick_8">
     <g id="line2d_8">
      <g>
       <use xlink:href="#m5125c7395e" x="360.242188" y="197.46" style="stroke: #000000; stroke-width: 0.8"/>
      </g>
     </g>
     <g id="text_8">
      <!-- 4 -->
      <g transform="translate(357.060938 212.058437) scale(0.1 -0.1)">
       <defs>
        <path id="DejaVuSans-34" d="M 2419 4116 
L 825 1625 
L 2419 1625 
L 2419 4116 
z
M 2253 4666 
L 3047 4666 
L 3047 1625 
L 3713 1625 
L 3713 1100 
L 3047 1100 
L 3047 0 
L 2419 0 
L 2419 1100 
L 313 1100 
L 313 1709 
L 2253 4666 
z
" transform="scale(0.015625)"/>
       </defs>
       <use xlink:href="#DejaVuSans-34"/>
      </g>
     </g>
    </g>
    <g id="text_9">
     <!-- x -->
     <g transform="translate(212.028438 225.736562) scale(0.1 -0.1)">
      <defs>
       <path id="DejaVuSans-78" d="M 3513 3500 
L 2247 1797 
L 3578 0 
L 2900 0 
L 1881 1375 
L 863 0 
L 184 0 
L 1544 1831 
L 300 3500 
L 978 3500 
L 1906 2253 
L 2834 3500 
L 3513 3500 
z
" transform="scale(0.015625)"/>
      </defs>
      <use xlink:href="#DejaVuSans-78"/>
     </g>
    </g>
   </g>
   <g id="matplotlib.axis_2">
    <g id="ytick_1">
     <g id="line2d_9">
      <defs>
       <path id="m4b28fa9874" d="M 0 0 
L -3.5 0 
" style="stroke: #000000; stroke-width: 0.8"/>
      </defs>
      <g>
       <use xlink:href="#m4b28fa9874" x="48.982813" y="194.487187" style="stroke: #000000; stroke-width: 0.8"/>
      </g>
     </g>
     <g id="text_10">
      <!-- −30 -->
      <g transform="translate(20.878125 198.286406) scale(0.1 -0.1)">
       <use xlink:href="#DejaVuSans-2212"/>
       <use xlink:href="#DejaVuSans-33" x="83.789062"/>
       <use xlink:href="#DejaVuSans-30" x="147.412109"/>
      </g>
     </g>
    </g>
    <g id="ytick_2">
     <g id="line2d_10">
      <g>
       <use xlink:href="#m4b28fa9874" x="48.982813" y="164.759062" style="stroke: #000000; stroke-width: 0.8"/>
      </g>
     </g>
     <g id="text_11">
      <!-- −20 -->
      <g transform="translate(20.878125 168.558281) scale(0.1 -0.1)">
       <use xlink:href="#DejaVuSans-2212"/>
       <use xlink:href="#DejaVuSans-32" x="83.789062"/>
       <use xlink:href="#DejaVuSans-30" x="147.412109"/>
      </g>
     </g>
    </g>
    <g id="ytick_3">
     <g id="line2d_11">
      <g>
       <use xlink:href="#m4b28fa9874" x="48.982813" y="135.030937" style="stroke: #000000; stroke-width: 0.8"/>
      </g>
     </g>
     <g id="text_12">
      <!-- −10 -->
      <g transform="translate(20.878125 138.830156) scale(0.1 -0.1)">
       <use xlink:href="#DejaVuSans-2212"/>
       <use xlink:href="#DejaVuSans-31" x="83.789062"/>
       <use xlink:href="#DejaVuSans-30" x="147.412109"/>
      </g>
     </g>
    </g>
    <g id="ytick_4">
     <g id="line2d_12">
      <g>
       <use xlink:href="#m4b28fa9874" x="48.982813" y="105.302812" style="stroke: #000000; stroke-width: 0.8"/>
      </g>
     </g>
     <g id="text_13">
      <!-- 0 -->
      <g transform="translate(35.620312 109.102031) scale(0.1 -0.1)">
       <use xlink:href="#DejaVuSans-30"/>
      </g>
     </g>
    </g>
    <g id="ytick_5">
     <g id="line2d_13">
      <g>
       <use xlink:href="#m4b28fa9874" x="48.982813" y="75.574687" style="stroke: #000000; stroke-width: 0.8"/>
      </g>
     </g>
     <g id="text_14">
      <!-- 10 -->
      <g transform="translate(29.257812 79.373906) scale(0.1 -0.1)">
       <use xlink:href="#DejaVuSans-31"/>
       <use xlink:href="#DejaVuSans-30" x="63.623047"/>
      </g>
     </g>
    </g>
    <g id="ytick_6">
     <g id="line2d_14">
      <g>
       <use xlink:href="#m4b28fa9874" x="48.982813" y="45.846562" style="stroke: #000000; stroke-width: 0.8"/>
      </g>
     </g>
     <g id="text_15">
      <!-- 20 -->
      <g transform="translate(29.257812 49.645781) scale(0.1 -0.1)">
       <use xlink:href="#DejaVuSans-32"/>
       <use xlink:href="#DejaVuSans-30" x="63.623047"/>
      </g>
     </g>
    </g>
    <g id="ytick_7">
     <g id="line2d_15">
      <g>
       <use xlink:href="#m4b28fa9874" x="48.982813" y="16.118437" style="stroke: #000000; stroke-width: 0.8"/>
      </g>
     </g>
     <g id="text_16">
      <!-- 30 -->
      <g transform="translate(29.257812 19.917656) scale(0.1 -0.1)">
       <use xlink:href="#DejaVuSans-33"/>
       <use xlink:href="#DejaVuSans-30" x="63.623047"/>
      </g>
     </g>
    </g>
    <g id="text_17">
     <!-- y -->
     <g transform="translate(14.798438 105.289375) rotate(-90) scale(0.1 -0.1)">
      <defs>
       <path id="DejaVuSans-79" d="M 2059 -325 
Q 1816 -950 1584 -1140 
Q 1353 -1331 966 -1331 
L 506 -1331 
L 506 -850 
L 844 -850 
Q 1081 -850 1212 -737 
Q 1344 -625 1503 -206 
L 1606 56 
L 191 3500 
L 800 3500 
L 1894 763 
L 2988 3500 
L 3597 3500 
L 2059 -325 
z
" transform="scale(0.015625)"/>
      </defs>
      <use xlink:href="#DejaVuSans-79"/>
     </g>
    </g>
   </g>
   <g id="line2d_16">
    <defs>
     <path id="ma9ddb902ff" d="M 0 3 
C 0.795609 3 1.55874 2.683901 2.12132 2.12132 
C 2.683901 1.55874 3 0.795609 3 0 
C 3 -0.795609 2.683901 -1.55874 2.12132 -2.12132 
C 1.55874 -2.683901 0.795609 -3 0 -3 
C -0.795609 -3 -1.55874 -2.683901 -2.12132 -2.12132 
C -2.683901 -1.55874 -3 -0.795609 -3 0 
C -3 0.795609 -2.683901 1.55874 -2.12132 2.12132 
C -1.55874 2.683901 -0.795609 3 0 3 
z
" style="stroke: #ff0000"/>
    </defs>
    <g clip-path="url(#p1e639c96e1)">
     <use xlink:href="#ma9ddb902ff" x="111.234687" y="158.813437" style="fill: #ff0000; stroke: #ff0000"/>
     <use xlink:href="#ma9ddb902ff" x="173.486562" y="105.302812" style="fill: #ff0000; stroke: #ff0000"/>
     <use xlink:href="#ma9ddb902ff" x="235.738438" y="114.22125" style="fill: #ff0000; stroke: #ff0000"/>
     <use xlink:href="#ma9ddb902ff" x="297.990313" y="120.166875" style="fill: #ff0000; stroke: #ff0000"/>
     <use xlink:href="#ma9ddb902ff" x="360.242188" y="69.629063" style="fill: #ff0000; stroke: #ff0000"/>
    </g>
   </g>
   <g id="line2d_17">
    <path d="M 111.234687 158.813437 
L 115.384813 156.138486 
L 119.534939 153.263229 
L 123.685061 150.189592 
L 127.835187 146.923659 
L 131.985312 143.476337 
L 136.135438 139.863737 
L 140.285564 136.107562 
L 144.435686 132.235222 
L 148.585812 128.279822 
L 152.735938 124.279934 
L 156.886061 120.279342 
L 161.036185 116.326533 
L 165.186311 112.474365 
L 169.336437 108.779634 
L 173.48656 105.302814 
L 177.636687 102.107802 
L 181.786812 99.261638 
L 185.936937 96.83395 
L 190.087062 94.895854 
L 194.237187 93.517788 
L 198.387312 92.765919 
L 202.537437 92.696571 
L 206.687562 93.34872 
L 210.837688 94.734886 
L 214.987813 96.831875 
L 219.137938 99.57356 
L 223.288062 102.848348 
L 227.438188 106.50377 
L 231.588312 110.358674 
L 235.738438 114.221253 
L 239.888563 117.909117 
L 244.038689 121.266569 
L 248.188815 124.175847 
L 252.338941 126.560753 
L 256.489063 128.383751 
L 260.639188 129.638734 
L 264.789314 130.34207 
L 268.93944 130.523888 
L 273.089566 130.220845 
L 277.239688 129.470956 
L 281.389809 128.310353 
L 285.539939 126.771769 
L 289.690061 124.884386 
L 293.840191 122.674481 
L 297.990313 120.166874 
L 302.140434 117.386446 
L 306.290564 114.359787 
L 310.440686 111.116629 
L 314.590816 107.690654 
L 318.740938 104.119904 
L 322.891059 100.446265 
L 327.041189 96.714414 
L 331.191311 92.970171 
L 335.341441 89.258442 
L 339.491562 85.621252 
L 343.641684 82.095848 
L 347.791814 78.713277 
L 351.941936 75.497788 
L 356.092066 72.466309 
L 360.242188 69.629065 
" clip-path="url(#p1e639c96e1)" style="fill: none; stroke: #1f77b4; stroke-width: 2; stroke-linecap: square"/>
   </g>
   <g id="line2d_18">
    <path d="M 111.234687 158.813437 
L 115.384813 158.624269 
L 119.534939 158.333002 
L 123.685061 157.862422 
L 127.835187 157.060941 
L 131.985312 155.604206 
L 136.135438 152.713884 
L 140.285564 146.689335 
L 144.435686 136.305052 
L 148.585812 124.93082 
L 152.735938 116.603033 
L 156.886061 111.576026 
L 161.036185 108.704461 
L 165.186311 107.042311 
L 169.336437 106.01506 
L 173.48656 105.302813 
L 177.636687 104.732388 
L 181.786812 104.211151 
L 185.936937 103.690408 
L 190.087062 103.146864 
L 194.237187 102.576532 
L 198.387312 101.999688 
L 202.537437 101.477753 
L 206.687562 101.135412 
L 210.837688 101.14909 
L 214.987813 101.649865 
L 219.137938 102.635882 
L 223.288062 104.156333 
L 227.438188 106.531453 
L 231.588312 109.944913 
L 235.738438 114.221244 
L 239.888563 119.427783 
L 244.038689 125.469119 
L 248.188815 130.960833 
L 252.338941 134.323459 
L 256.489063 135.289504 
L 260.639188 134.555932 
L 264.789314 132.935663 
L 268.93944 130.987658 
L 273.089566 129.024417 
L 277.239688 127.195034 
L 281.389809 125.545006 
L 285.539939 124.058939 
L 289.690061 122.694647 
L 293.840191 121.407739 
L 297.990313 120.166875 
L 302.140434 118.957147 
L 306.290564 117.753447 
L 310.440686 116.451999 
L 314.590816 114.847282 
L 318.740938 112.653954 
L 322.891059 109.286261 
L 327.041189 103.461348 
L 331.191311 94.312635 
L 335.341441 84.579009 
L 339.491562 77.67765 
L 343.641684 73.695116 
L 347.791814 71.55116 
L 351.941936 70.43787 
L 356.092066 69.884085 
L 360.242188 69.629063 
" clip-path="url(#p1e639c96e1)" style="fill: none; stroke: #ff7f0e; stroke-width: 2; stroke-linecap: square"/>
   </g>
   <g id="line2d_19">
    <path d="M 111.234687 158.857591 
L 115.384813 158.282288 
L 119.534939 157.504996 
L 123.685061 156.449513 
L 127.835187 154.95616 
L 131.985312 152.812857 
L 136.135438 149.695789 
L 140.285564 145.237639 
L 144.435686 139.273184 
L 148.585812 132.13461 
L 152.735938 124.962087 
L 156.886061 118.860348 
L 161.036185 114.074873 
L 165.186311 110.400775 
L 169.336437 107.577649 
L 173.48656 105.430147 
L 177.636687 103.799326 
L 181.786812 102.599517 
L 185.936937 101.735749 
L 190.087062 101.164968 
L 194.237187 100.846442 
L 198.387312 100.758968 
L 202.537437 100.898803 
L 206.687562 101.287927 
L 210.837688 101.964483 
L 214.987813 102.997751 
L 219.137938 104.460818 
L 223.288062 106.413859 
L 227.438188 108.840063 
L 231.588312 111.53894 
L 235.738438 114.049032 
L 239.888563 116.173995 
L 244.038689 118.626833 
L 248.188815 122.387307 
L 252.338941 126.165511 
L 256.489063 128.28099 
L 260.639188 129.46331 
L 264.789314 130.951497 
L 268.93944 133.263641 
L 273.089566 135.292183 
L 277.239688 135.628967 
L 281.389809 134.775753 
L 285.539939 133.245967 
L 289.690061 130.956039 
L 293.840191 127.084427 
L 297.990313 120.278177 
L 302.140434 107.640842 
L 306.290564 86.241208 
L 310.440686 65.925195 
L 314.590816 52.386089 
L 318.740938 49.420636 
L 322.891059 49.353297 
L 327.041189 52.626244 
L 331.191311 63.350665 
L 335.341441 68.719235 
L 339.491562 69.527855 
L 343.641684 69.664949 
L 347.791814 69.679261 
L 351.941936 69.669125 
L 356.092066 69.650836 
L 360.242188 69.625652 
" clip-path="url(#p1e639c96e1)" style="fill: none; stroke: #2ca02c; stroke-width: 2; stroke-linecap: square"/>
   </g>
   <g id="line2d_20">
    <path d="M 111.234687 158.813437 
L 115.384813 158.806713 
L 119.534939 158.802137 
L 123.685061 158.803021 
L 127.835187 158.811215 
L 131.985312 158.813902 
L 136.135438 158.807909 
L 140.285564 158.815224 
L 144.435686 158.834332 
L 148.585812 158.84734 
L 152.735938 157.976115 
L 156.886061 145.031125 
L 161.036185 116.274793 
L 165.186311 111.350361 
L 169.336437 107.461296 
L 173.48656 105.302821 
L 177.636687 102.728434 
L 181.786812 100.300057 
L 185.936937 100.117805 
L 190.087062 104.226732 
L 194.237187 125.675754 
L 198.387312 134.763163 
L 202.537437 139.451298 
L 206.687562 141.477189 
L 210.837688 134.818654 
L 214.987813 127.423661 
L 219.137938 123.852185 
L 223.288062 120.853831 
L 227.438188 118.038161 
L 231.588312 115.725302 
L 235.738438 114.2212 
L 239.888563 113.657416 
L 244.038689 113.961879 
L 248.188815 114.86304 
L 252.338941 115.984741 
L 256.489063 117.02609 
L 260.639188 117.8585 
L 264.789314 118.480803 
L 268.93944 118.937233 
L 273.089566 119.273839 
L 277.239688 119.526077 
L 281.389809 119.719053 
L 285.539939 119.870079 
L 289.690061 119.99047 
L 293.840191 120.087847 
L 297.990313 120.166908 
L 302.140434 120.229572 
L 306.290564 120.275635 
L 310.440686 120.30195 
L 314.590816 120.300849 
L 318.740938 120.256033 
L 322.891059 120.133249 
L 327.041189 119.859637 
L 331.191311 119.280013 
L 335.341441 118.045976 
L 339.491562 115.245188 
L 343.641684 108.067176 
L 347.791814 90.302355 
L 351.941936 65.680025 
L 356.092066 68.962776 
L 360.242188 69.629071 
" clip-path="url(#p1e639c96e1)" style="fill: none; stroke: #d62728; stroke-width: 2; stroke-linecap: square"/>
   </g>
   <g id="line2d_21">
    <path d="M 111.234687 158.813432 
L 115.384813 158.810081 
L 119.534939 158.804592 
L 123.685061 158.794794 
L 127.835187 158.774693 
L 131.985312 158.723627 
L 136.135438 158.522891 
L 140.285564 155.67543 
L 144.435686 112.511331 
L 148.585812 105.306573 
L 152.735938 105.299796 
L 156.886061 105.300033 
L 161.036185 105.300722 
L 165.186311 105.301429 
L 169.336437 105.302121 
L 173.48656 105.302811 
L 177.636687 105.303582 
L 181.786812 105.304577 
L 185.936937 105.306057 
L 190.087062 105.3087 
L 194.237187 105.314675 
L 198.387312 105.339279 
L 202.537437 113.480031 
L 206.687562 114.022863 
L 210.837688 114.031548 
L 214.987813 114.037695 
L 219.137938 114.064162 
L 223.288062 114.160464 
L 227.438188 114.206466 
L 231.588312 114.209985 
L 235.738438 114.221256 
L 239.888563 114.219264 
L 244.038689 114.041153 
L 248.188815 113.940296 
L 252.338941 120.578664 
L 256.489063 120.513042 
L 260.639188 120.499157 
L 264.789314 120.483924 
L 268.93944 120.467904 
L 273.089566 120.449949 
L 277.239688 120.428658 
L 281.389809 120.402276 
L 285.539939 120.368206 
L 289.690061 120.322325 
L 293.840191 120.258422 
L 297.990313 120.166893 
L 302.140434 120.032133 
L 306.290564 119.826601 
L 310.440686 119.497356 
L 314.590816 118.93643 
L 318.740938 117.909246 
L 322.891059 115.870895 
L 327.041189 111.118908 
L 331.191311 89.683675 
L 335.341441 71.505436 
L 339.491562 69.972574 
L 343.641684 69.775161 
L 347.791814 69.703506 
L 351.941936 69.666077 
L 356.092066 69.64376 
L 360.242188 69.629068 
" clip-path="url(#p1e639c96e1)" style="fill: none; stroke: #9467bd; stroke-width: 2; stroke-linecap: square"/>
   </g>
   <g id="patch_3">
    <path d="M 48.982813 197.46 
L 48.982813 7.2 
" style="fill: none; stroke: #000000; stroke-width: 0.8; stroke-linejoin: miter; stroke-linecap: square"/>
   </g>
   <g id="patch_4">
    <path d="M 380.992813 197.46 
L 380.992813 7.2 
" style="fill: none; stroke: #000000; stroke-width: 0.8; stroke-linejoin: miter; stroke-linecap: square"/>
   </g>
   <g id="patch_5">
    <path d="M 48.982812 197.46 
L 380.992813 197.46 
" style="fill: none; stroke: #000000; stroke-width: 0.8; stroke-linejoin: miter; stroke-linecap: square"/>
   </g>
   <g id="patch_6">
    <path d="M 48.982812 7.2 
L 380.992813 7.2 
" style="fill: none; stroke: #000000; stroke-width: 0.8; stroke-linejoin: miter; stroke-linecap: square"/>
   </g>
   <g id="legend_1">
    <g id="patch_7">
     <path d="M 55.982813 103.26875 
L 153.1375 103.26875 
Q 155.1375 103.26875 155.1375 101.26875 
L 155.1375 14.2 
Q 155.1375 12.2 153.1375 12.2 
L 55.982813 12.2 
Q 53.982813 12.2 53.982813 14.2 
L 53.982813 101.26875 
Q 53.982813 103.26875 55.982813 103.26875 
z
" style="fill: #ffffff; opacity: 0.8; stroke: #cccccc; stroke-linejoin: miter"/>
    </g>
    <g id="line2d_22">
     <g>
      <use xlink:href="#ma9ddb902ff" x="67.982812" y="20.298437" style="fill: #ff0000; stroke: #ff0000"/>
     </g>
    </g>
    <g id="text_18">
     <!-- Training data -->
     <g transform="translate(85.982812 23.798437) scale(0.1 -0.1)">
      <defs>
       <path id="DejaVuSans-54" d="M -19 4666 
L 3928 4666 
L 3928 4134 
L 2272 4134 
L 2272 0 
L 1638 0 
L 1638 4134 
L -19 4134 
L -19 4666 
z
" transform="scale(0.015625)"/>
       <path id="DejaVuSans-72" d="M 2631 2963 
Q 2534 3019 2420 3045 
Q 2306 3072 2169 3072 
Q 1681 3072 1420 2755 
Q 1159 2438 1159 1844 
L 1159 0 
L 581 0 
L 581 3500 
L 1159 3500 
L 1159 2956 
Q 1341 3275 1631 3429 
Q 1922 3584 2338 3584 
Q 2397 3584 2469 3576 
Q 2541 3569 2628 3553 
L 2631 2963 
z
" transform="scale(0.015625)"/>
       <path id="DejaVuSans-61" d="M 2194 1759 
Q 1497 1759 1228 1600 
Q 959 1441 959 1056 
Q 959 750 1161 570 
Q 1363 391 1709 391 
Q 2188 391 2477 730 
Q 2766 1069 2766 1631 
L 2766 1759 
L 2194 1759 
z
M 3341 1997 
L 3341 0 
L 2766 0 
L 2766 531 
Q 2569 213 2275 61 
Q 1981 -91 1556 -91 
Q 1019 -91 701 211 
Q 384 513 384 1019 
Q 384 1609 779 1909 
Q 1175 2209 1959 2209 
L 2766 2209 
L 2766 2266 
Q 2766 2663 2505 2880 
Q 2244 3097 1772 3097 
Q 1472 3097 1187 3025 
Q 903 2953 641 2809 
L 641 3341 
Q 956 3463 1253 3523 
Q 1550 3584 1831 3584 
Q 2591 3584 2966 3190 
Q 3341 2797 3341 1997 
z
" transform="scale(0.015625)"/>
       <path id="DejaVuSans-69" d="M 603 3500 
L 1178 3500 
L 1178 0 
L 603 0 
L 603 3500 
z
M 603 4863 
L 1178 4863 
L 1178 4134 
L 603 4134 
L 603 4863 
z
" transform="scale(0.015625)"/>
       <path id="DejaVuSans-6e" d="M 3513 2113 
L 3513 0 
L 2938 0 
L 2938 2094 
Q 2938 2591 2744 2837 
Q 2550 3084 2163 3084 
Q 1697 3084 1428 2787 
Q 1159 2491 1159 1978 
L 1159 0 
L 581 0 
L 581 3500 
L 1159 3500 
L 1159 2956 
Q 1366 3272 1645 3428 
Q 1925 3584 2291 3584 
Q 2894 3584 3203 3211 
Q 3513 2838 3513 2113 
z
" transform="scale(0.015625)"/>
       <path id="DejaVuSans-67" d="M 2906 1791 
Q 2906 2416 2648 2759 
Q 2391 3103 1925 3103 
Q 1463 3103 1205 2759 
Q 947 2416 947 1791 
Q 947 1169 1205 825 
Q 1463 481 1925 481 
Q 2391 481 2648 825 
Q 2906 1169 2906 1791 
z
M 3481 434 
Q 3481 -459 3084 -895 
Q 2688 -1331 1869 -1331 
Q 1566 -1331 1297 -1286 
Q 1028 -1241 775 -1147 
L 775 -588 
Q 1028 -725 1275 -790 
Q 1522 -856 1778 -856 
Q 2344 -856 2625 -561 
Q 2906 -266 2906 331 
L 2906 616 
Q 2728 306 2450 153 
Q 2172 0 1784 0 
Q 1141 0 747 490 
Q 353 981 353 1791 
Q 353 2603 747 3093 
Q 1141 3584 1784 3584 
Q 2172 3584 2450 3431 
Q 2728 3278 2906 2969 
L 2906 3500 
L 3481 3500 
L 3481 434 
z
" transform="scale(0.015625)"/>
       <path id="DejaVuSans-20" transform="scale(0.015625)"/>
       <path id="DejaVuSans-64" d="M 2906 2969 
L 2906 4863 
L 3481 4863 
L 3481 0 
L 2906 0 
L 2906 525 
Q 2725 213 2448 61 
Q 2172 -91 1784 -91 
Q 1150 -91 751 415 
Q 353 922 353 1747 
Q 353 2572 751 3078 
Q 1150 3584 1784 3584 
Q 2172 3584 2448 3432 
Q 2725 3281 2906 2969 
z
M 947 1747 
Q 947 1113 1208 752 
Q 1469 391 1925 391 
Q 2381 391 2643 752 
Q 2906 1113 2906 1747 
Q 2906 2381 2643 2742 
Q 2381 3103 1925 3103 
Q 1469 3103 1208 2742 
Q 947 2381 947 1747 
z
" transform="scale(0.015625)"/>
       <path id="DejaVuSans-74" d="M 1172 4494 
L 1172 3500 
L 2356 3500 
L 2356 3053 
L 1172 3053 
L 1172 1153 
Q 1172 725 1289 603 
Q 1406 481 1766 481 
L 2356 481 
L 2356 0 
L 1766 0 
Q 1100 0 847 248 
Q 594 497 594 1153 
L 594 3053 
L 172 3053 
L 172 3500 
L 594 3500 
L 594 4494 
L 1172 4494 
z
" transform="scale(0.015625)"/>
      </defs>
      <use xlink:href="#DejaVuSans-54"/>
      <use xlink:href="#DejaVuSans-72" x="46.333984"/>
      <use xlink:href="#DejaVuSans-61" x="87.447266"/>
      <use xlink:href="#DejaVuSans-69" x="148.726562"/>
      <use xlink:href="#DejaVuSans-6e" x="176.509766"/>
      <use xlink:href="#DejaVuSans-69" x="239.888672"/>
      <use xlink:href="#DejaVuSans-6e" x="267.671875"/>
      <use xlink:href="#DejaVuSans-67" x="331.050781"/>
      <use xlink:href="#DejaVuSans-20" x="394.527344"/>
      <use xlink:href="#DejaVuSans-64" x="426.314453"/>
      <use xlink:href="#DejaVuSans-61" x="489.791016"/>
      <use xlink:href="#DejaVuSans-74" x="551.070312"/>
      <use xlink:href="#DejaVuSans-61" x="590.279297"/>
     </g>
    </g>
    <g id="line2d_23">
     <path d="M 57.982813 34.976562 
L 67.982812 34.976562 
L 77.982812 34.976562 
" style="fill: none; stroke: #1f77b4; stroke-width: 2; stroke-linecap: square"/>
    </g>
    <g id="text_19">
     <!-- 2-layer -->
     <g transform="translate(85.982812 38.476562) scale(0.1 -0.1)">
      <defs>
       <path id="DejaVuSans-2d" d="M 313 2009 
L 1997 2009 
L 1997 1497 
L 313 1497 
L 313 2009 
z
" transform="scale(0.015625)"/>
       <path id="DejaVuSans-6c" d="M 603 4863 
L 1178 4863 
L 1178 0 
L 603 0 
L 603 4863 
z
" transform="scale(0.015625)"/>
       <path id="DejaVuSans-65" d="M 3597 1894 
L 3597 1613 
L 953 1613 
Q 991 1019 1311 708 
Q 1631 397 2203 397 
Q 2534 397 2845 478 
Q 3156 559 3463 722 
L 3463 178 
Q 3153 47 2828 -22 
Q 2503 -91 2169 -91 
Q 1331 -91 842 396 
Q 353 884 353 1716 
Q 353 2575 817 3079 
Q 1281 3584 2069 3584 
Q 2775 3584 3186 3129 
Q 3597 2675 3597 1894 
z
M 3022 2063 
Q 3016 2534 2758 2815 
Q 2500 3097 2075 3097 
Q 1594 3097 1305 2825 
Q 1016 2553 972 2059 
L 3022 2063 
z
" transform="scale(0.015625)"/>
      </defs>
      <use xlink:href="#DejaVuSans-32"/>
      <use xlink:href="#DejaVuSans-2d" x="63.623047"/>
      <use xlink:href="#DejaVuSans-6c" x="99.707031"/>
      <use xlink:href="#DejaVuSans-61" x="127.490234"/>
      <use xlink:href="#DejaVuSans-79" x="188.769531"/>
      <use xlink:href="#DejaVuSans-65" x="247.949219"/>
      <use xlink:href="#DejaVuSans-72" x="309.472656"/>
     </g>
    </g>
    <g id="line2d_24">
     <path d="M 57.982813 49.654687 
L 67.982812 49.654687 
L 77.982812 49.654687 
" style="fill: none; stroke: #ff7f0e; stroke-width: 2; stroke-linecap: square"/>
    </g>
    <g id="text_20">
     <!-- 4-layer -->
     <g transform="translate(85.982812 53.154687) scale(0.1 -0.1)">
      <use xlink:href="#DejaVuSans-34"/>
      <use xlink:href="#DejaVuSans-2d" x="63.623047"/>
      <use xlink:href="#DejaVuSans-6c" x="99.707031"/>
      <use xlink:href="#DejaVuSans-61" x="127.490234"/>
      <use xlink:href="#DejaVuSans-79" x="188.769531"/>
      <use xlink:href="#DejaVuSans-65" x="247.949219"/>
      <use xlink:href="#DejaVuSans-72" x="309.472656"/>
     </g>
    </g>
    <g id="line2d_25">
     <path d="M 57.982813 64.332812 
L 67.982812 64.332812 
L 77.982812 64.332812 
" style="fill: none; stroke: #2ca02c; stroke-width: 2; stroke-linecap: square"/>
    </g>
    <g id="text_21">
     <!-- 6-layer -->
     <g transform="translate(85.982812 67.832812) scale(0.1 -0.1)">
      <defs>
       <path id="DejaVuSans-36" d="M 2113 2584 
Q 1688 2584 1439 2293 
Q 1191 2003 1191 1497 
Q 1191 994 1439 701 
Q 1688 409 2113 409 
Q 2538 409 2786 701 
Q 3034 994 3034 1497 
Q 3034 2003 2786 2293 
Q 2538 2584 2113 2584 
z
M 3366 4563 
L 3366 3988 
Q 3128 4100 2886 4159 
Q 2644 4219 2406 4219 
Q 1781 4219 1451 3797 
Q 1122 3375 1075 2522 
Q 1259 2794 1537 2939 
Q 1816 3084 2150 3084 
Q 2853 3084 3261 2657 
Q 3669 2231 3669 1497 
Q 3669 778 3244 343 
Q 2819 -91 2113 -91 
Q 1303 -91 875 529 
Q 447 1150 447 2328 
Q 447 3434 972 4092 
Q 1497 4750 2381 4750 
Q 2619 4750 2861 4703 
Q 3103 4656 3366 4563 
z
" transform="scale(0.015625)"/>
      </defs>
      <use xlink:href="#DejaVuSans-36"/>
      <use xlink:href="#DejaVuSans-2d" x="63.623047"/>
      <use xlink:href="#DejaVuSans-6c" x="99.707031"/>
      <use xlink:href="#DejaVuSans-61" x="127.490234"/>
      <use xlink:href="#DejaVuSans-79" x="188.769531"/>
      <use xlink:href="#DejaVuSans-65" x="247.949219"/>
      <use xlink:href="#DejaVuSans-72" x="309.472656"/>
     </g>
    </g>
    <g id="line2d_26">
     <path d="M 57.982813 79.010937 
L 67.982812 79.010937 
L 77.982812 79.010937 
" style="fill: none; stroke: #d62728; stroke-width: 2; stroke-linecap: square"/>
    </g>
    <g id="text_22">
     <!-- 8-layer -->
     <g transform="translate(85.982812 82.510937) scale(0.1 -0.1)">
      <defs>
       <path id="DejaVuSans-38" d="M 2034 2216 
Q 1584 2216 1326 1975 
Q 1069 1734 1069 1313 
Q 1069 891 1326 650 
Q 1584 409 2034 409 
Q 2484 409 2743 651 
Q 3003 894 3003 1313 
Q 3003 1734 2745 1975 
Q 2488 2216 2034 2216 
z
M 1403 2484 
Q 997 2584 770 2862 
Q 544 3141 544 3541 
Q 544 4100 942 4425 
Q 1341 4750 2034 4750 
Q 2731 4750 3128 4425 
Q 3525 4100 3525 3541 
Q 3525 3141 3298 2862 
Q 3072 2584 2669 2484 
Q 3125 2378 3379 2068 
Q 3634 1759 3634 1313 
Q 3634 634 3220 271 
Q 2806 -91 2034 -91 
Q 1263 -91 848 271 
Q 434 634 434 1313 
Q 434 1759 690 2068 
Q 947 2378 1403 2484 
z
M 1172 3481 
Q 1172 3119 1398 2916 
Q 1625 2713 2034 2713 
Q 2441 2713 2670 2916 
Q 2900 3119 2900 3481 
Q 2900 3844 2670 4047 
Q 2441 4250 2034 4250 
Q 1625 4250 1398 4047 
Q 1172 3844 1172 3481 
z
" transform="scale(0.015625)"/>
      </defs>
      <use xlink:href="#DejaVuSans-38"/>
      <use xlink:href="#DejaVuSans-2d" x="63.623047"/>
      <use xlink:href="#DejaVuSans-6c" x="99.707031"/>
      <use xlink:href="#DejaVuSans-61" x="127.490234"/>
      <use xlink:href="#DejaVuSans-79" x="188.769531"/>
      <use xlink:href="#DejaVuSans-65" x="247.949219"/>
      <use xlink:href="#DejaVuSans-72" x="309.472656"/>
     </g>
    </g>
    <g id="line2d_27">
     <path d="M 57.982813 93.689062 
L 67.982812 93.689062 
L 77.982812 93.689062 
" style="fill: none; stroke: #9467bd; stroke-width: 2; stroke-linecap: square"/>
    </g>
    <g id="text_23">
     <!-- 10-layer -->
     <g transform="translate(85.982812 97.189062) scale(0.1 -0.1)">
      <use xlink:href="#DejaVuSans-31"/>
      <use xlink:href="#DejaVuSans-30" x="63.623047"/>
      <use xlink:href="#DejaVuSans-2d" x="127.246094"/>
      <use xlink:href="#DejaVuSans-6c" x="163.330078"/>
      <use xlink:href="#DejaVuSans-61" x="191.113281"/>
      <use xlink:href="#DejaVuSans-79" x="252.392578"/>
      <use xlink:href="#DejaVuSans-65" x="311.572266"/>
      <use xlink:href="#DejaVuSans-72" x="373.095703"/>
     </g>
    </g>
   </g>
  </g>
 </g>
 <defs>
  <clipPath id="p1e639c96e1">
   <rect x="48.982813" y="7.2" width="332.01" height="190.26"/>
  </clipPath>
 </defs>
</svg>
