<?xml version="1.0" encoding="utf-8" standalone="no"?>
<!DOCTYPE svg PUBLIC "-//W3C//DTD SVG 1.1//EN"
  "http://www.w3.org/Graphics/SVG/1.1/DTD/svg11.dtd">
<svg xmlns:xlink="http://www.w3.org/1999/xlink" width="428.118125pt" height="183.35625pt" viewBox="0 0 428.118125 183.35625" xmlns="http://www.w3.org/2000/svg" version="1.1">
 <metadata>
  <rdf:RDF xmlns:dc="http://purl.org/dc/elements/1.1/" xmlns:cc="http://creativecommons.org/ns#" xmlns:rdf="http://www.w3.org/1999/02/22-rdf-syntax-ns#">
   <cc:Work>
    <dc:type rdf:resource="http://purl.org/dc/dcmitype/StillImage"/>
    <dc:date>2024-05-31T15:24:58.849172</dc:date>
    <dc:format>image/svg+xml</dc:format>
    <dc:creator>
     <cc:Agent>
      <dc:title>Matplotlib v3.8.3, https://matplotlib.org/</dc:title>
     </cc:Agent>
    </dc:creator>
   </cc:Work>
  </rdf:RDF>
 </metadata>
 <defs>
  <style type="text/css">*{stroke-linejoin: round; stroke-linecap: butt}</style>
 </defs>
 <g id="figure_1">
  <g id="patch_1">
   <path d="M 0 183.35625 
L 428.118125 183.35625 
L 428.118125 0 
L 0 0 
z
" style="fill: #ffffff"/>
  </g>
  <g id="axes_1">
   <g id="patch_2">
    <path d="M 51.378125 145.8 
L 246.678125 145.8 
L 246.678125 7.2 
L 51.378125 7.2 
z
" style="fill: #ffffff"/>
   </g>
   <g id="matplotlib.axis_1">
    <g id="xtick_1">
     <g id="line2d_1">
      <defs>
       <path id="m235e4a4254" d="M 0 0 
L 0 3.5 
" style="stroke: #000000; stroke-width: 0.8"/>
      </defs>
      <g>
       <use xlink:href="#m235e4a4254" x="97.380515" y="145.8" style="stroke: #000000; stroke-width: 0.8"/>
      </g>
     </g>
     <g id="text_1">
      <!-- $\mathdefault{10^{1}}$ -->
      <g transform="translate(88.580515 160.398438) scale(0.1 -0.1)">
       <defs>
        <path id="DejaVuSans-31" d="M 794 531 
L 1825 531 
L 1825 4091 
L 703 3866 
L 703 4441 
L 1819 4666 
L 2450 4666 
L 2450 531 
L 3481 531 
L 3481 0 
L 794 0 
L 794 531 
z
" transform="scale(0.015625)"/>
        <path id="DejaVuSans-30" d="M 2034 4250 
Q 1547 4250 1301 3770 
Q 1056 3291 1056 2328 
Q 1056 1369 1301 889 
Q 1547 409 2034 409 
Q 2525 409 2770 889 
Q 3016 1369 3016 2328 
Q 3016 3291 2770 3770 
Q 2525 4250 2034 4250 
z
M 2034 4750 
Q 2819 4750 3233 4129 
Q 3647 3509 3647 2328 
Q 3647 1150 3233 529 
Q 2819 -91 2034 -91 
Q 1250 -91 836 529 
Q 422 1150 422 2328 
Q 422 3509 836 4129 
Q 1250 4750 2034 4750 
z
" transform="scale(0.015625)"/>
       </defs>
       <use xlink:href="#DejaVuSans-31" transform="translate(0 0.684375)"/>
       <use xlink:href="#DejaVuSans-30" transform="translate(63.623047 0.684375)"/>
       <use xlink:href="#DejaVuSans-31" transform="translate(128.203125 38.965625) scale(0.7)"/>
      </g>
     </g>
    </g>
    <g id="xtick_2">
     <g id="line2d_2">
      <g>
       <use xlink:href="#m235e4a4254" x="190.673768" y="145.8" style="stroke: #000000; stroke-width: 0.8"/>
      </g>
     </g>
     <g id="text_2">
      <!-- $\mathdefault{10^{2}}$ -->
      <g transform="translate(181.873768 160.398438) scale(0.1 -0.1)">
       <defs>
        <path id="DejaVuSans-32" d="M 1228 531 
L 3431 531 
L 3431 0 
L 469 0 
L 469 531 
Q 828 903 1448 1529 
Q 2069 2156 2228 2338 
Q 2531 2678 2651 2914 
Q 2772 3150 2772 3378 
Q 2772 3750 2511 3984 
Q 2250 4219 1831 4219 
Q 1534 4219 1204 4116 
Q 875 4013 500 3803 
L 500 4441 
Q 881 4594 1212 4672 
Q 1544 4750 1819 4750 
Q 2544 4750 2975 4387 
Q 3406 4025 3406 3419 
Q 3406 3131 3298 2873 
Q 3191 2616 2906 2266 
Q 2828 2175 2409 1742 
Q 1991 1309 1228 531 
z
" transform="scale(0.015625)"/>
       </defs>
       <use xlink:href="#DejaVuSans-31" transform="translate(0 0.765625)"/>
       <use xlink:href="#DejaVuSans-30" transform="translate(63.623047 0.765625)"/>
       <use xlink:href="#DejaVuSans-32" transform="translate(128.203125 39.046875) scale(0.7)"/>
      </g>
     </g>
    </g>
    <g id="xtick_3">
     <g id="line2d_3">
      <defs>
       <path id="m6df98e0f74" d="M 0 0 
L 0 2 
" style="stroke: #000000; stroke-width: 0.6"/>
      </defs>
      <g>
       <use xlink:href="#m6df98e0f74" x="60.255398" y="145.8" style="stroke: #000000; stroke-width: 0.6"/>
      </g>
     </g>
    </g>
    <g id="xtick_4">
     <g id="line2d_4">
      <g>
       <use xlink:href="#m6df98e0f74" x="69.296448" y="145.8" style="stroke: #000000; stroke-width: 0.6"/>
      </g>
     </g>
    </g>
    <g id="xtick_5">
     <g id="line2d_5">
      <g>
       <use xlink:href="#m6df98e0f74" x="76.683524" y="145.8" style="stroke: #000000; stroke-width: 0.6"/>
      </g>
     </g>
    </g>
    <g id="xtick_6">
     <g id="line2d_6">
      <g>
       <use xlink:href="#m6df98e0f74" x="82.929208" y="145.8" style="stroke: #000000; stroke-width: 0.6"/>
      </g>
     </g>
    </g>
    <g id="xtick_7">
     <g id="line2d_7">
      <g>
       <use xlink:href="#m6df98e0f74" x="88.339465" y="145.8" style="stroke: #000000; stroke-width: 0.6"/>
      </g>
     </g>
    </g>
    <g id="xtick_8">
     <g id="line2d_8">
      <g>
       <use xlink:href="#m6df98e0f74" x="93.11165" y="145.8" style="stroke: #000000; stroke-width: 0.6"/>
      </g>
     </g>
    </g>
    <g id="xtick_9">
     <g id="line2d_9">
      <g>
       <use xlink:href="#m6df98e0f74" x="125.464583" y="145.8" style="stroke: #000000; stroke-width: 0.6"/>
      </g>
     </g>
    </g>
    <g id="xtick_10">
     <g id="line2d_10">
      <g>
       <use xlink:href="#m6df98e0f74" x="141.892709" y="145.8" style="stroke: #000000; stroke-width: 0.6"/>
      </g>
     </g>
    </g>
    <g id="xtick_11">
     <g id="line2d_11">
      <g>
       <use xlink:href="#m6df98e0f74" x="153.54865" y="145.8" style="stroke: #000000; stroke-width: 0.6"/>
      </g>
     </g>
    </g>
    <g id="xtick_12">
     <g id="line2d_12">
      <g>
       <use xlink:href="#m6df98e0f74" x="162.5897" y="145.8" style="stroke: #000000; stroke-width: 0.6"/>
      </g>
     </g>
    </g>
    <g id="xtick_13">
     <g id="line2d_13">
      <g>
       <use xlink:href="#m6df98e0f74" x="169.976776" y="145.8" style="stroke: #000000; stroke-width: 0.6"/>
      </g>
     </g>
    </g>
    <g id="xtick_14">
     <g id="line2d_14">
      <g>
       <use xlink:href="#m6df98e0f74" x="176.22246" y="145.8" style="stroke: #000000; stroke-width: 0.6"/>
      </g>
     </g>
    </g>
    <g id="xtick_15">
     <g id="line2d_15">
      <g>
       <use xlink:href="#m6df98e0f74" x="181.632718" y="145.8" style="stroke: #000000; stroke-width: 0.6"/>
      </g>
     </g>
    </g>
    <g id="xtick_16">
     <g id="line2d_16">
      <g>
       <use xlink:href="#m6df98e0f74" x="186.404903" y="145.8" style="stroke: #000000; stroke-width: 0.6"/>
      </g>
     </g>
    </g>
    <g id="xtick_17">
     <g id="line2d_17">
      <g>
       <use xlink:href="#m6df98e0f74" x="218.757835" y="145.8" style="stroke: #000000; stroke-width: 0.6"/>
      </g>
     </g>
    </g>
    <g id="xtick_18">
     <g id="line2d_18">
      <g>
       <use xlink:href="#m6df98e0f74" x="235.185961" y="145.8" style="stroke: #000000; stroke-width: 0.6"/>
      </g>
     </g>
    </g>
    <g id="text_3">
     <!-- Parameter Size(M) -->
     <g transform="translate(102.946875 174.076563) scale(0.1 -0.1)">
      <defs>
       <path id="DejaVuSans-50" d="M 1259 4147 
L 1259 2394 
L 2053 2394 
Q 2494 2394 2734 2622 
Q 2975 2850 2975 3272 
Q 2975 3691 2734 3919 
Q 2494 4147 2053 4147 
L 1259 4147 
z
M 628 4666 
L 2053 4666 
Q 2838 4666 3239 4311 
Q 3641 3956 3641 3272 
Q 3641 2581 3239 2228 
Q 2838 1875 2053 1875 
L 1259 1875 
L 1259 0 
L 628 0 
L 628 4666 
z
" transform="scale(0.015625)"/>
       <path id="DejaVuSans-61" d="M 2194 1759 
Q 1497 1759 1228 1600 
Q 959 1441 959 1056 
Q 959 750 1161 570 
Q 1363 391 1709 391 
Q 2188 391 2477 730 
Q 2766 1069 2766 1631 
L 2766 1759 
L 2194 1759 
z
M 3341 1997 
L 3341 0 
L 2766 0 
L 2766 531 
Q 2569 213 2275 61 
Q 1981 -91 1556 -91 
Q 1019 -91 701 211 
Q 384 513 384 1019 
Q 384 1609 779 1909 
Q 1175 2209 1959 2209 
L 2766 2209 
L 2766 2266 
Q 2766 2663 2505 2880 
Q 2244 3097 1772 3097 
Q 1472 3097 1187 3025 
Q 903 2953 641 2809 
L 641 3341 
Q 956 3463 1253 3523 
Q 1550 3584 1831 3584 
Q 2591 3584 2966 3190 
Q 3341 2797 3341 1997 
z
" transform="scale(0.015625)"/>
       <path id="DejaVuSans-72" d="M 2631 2963 
Q 2534 3019 2420 3045 
Q 2306 3072 2169 3072 
Q 1681 3072 1420 2755 
Q 1159 2438 1159 1844 
L 1159 0 
L 581 0 
L 581 3500 
L 1159 3500 
L 1159 2956 
Q 1341 3275 1631 3429 
Q 1922 3584 2338 3584 
Q 2397 3584 2469 3576 
Q 2541 3569 2628 3553 
L 2631 2963 
z
" transform="scale(0.015625)"/>
       <path id="DejaVuSans-6d" d="M 3328 2828 
Q 3544 3216 3844 3400 
Q 4144 3584 4550 3584 
Q 5097 3584 5394 3201 
Q 5691 2819 5691 2113 
L 5691 0 
L 5113 0 
L 5113 2094 
Q 5113 2597 4934 2840 
Q 4756 3084 4391 3084 
Q 3944 3084 3684 2787 
Q 3425 2491 3425 1978 
L 3425 0 
L 2847 0 
L 2847 2094 
Q 2847 2600 2669 2842 
Q 2491 3084 2119 3084 
Q 1678 3084 1418 2786 
Q 1159 2488 1159 1978 
L 1159 0 
L 581 0 
L 581 3500 
L 1159 3500 
L 1159 2956 
Q 1356 3278 1631 3431 
Q 1906 3584 2284 3584 
Q 2666 3584 2933 3390 
Q 3200 3197 3328 2828 
z
" transform="scale(0.015625)"/>
       <path id="DejaVuSans-65" d="M 3597 1894 
L 3597 1613 
L 953 1613 
Q 991 1019 1311 708 
Q 1631 397 2203 397 
Q 2534 397 2845 478 
Q 3156 559 3463 722 
L 3463 178 
Q 3153 47 2828 -22 
Q 2503 -91 2169 -91 
Q 1331 -91 842 396 
Q 353 884 353 1716 
Q 353 2575 817 3079 
Q 1281 3584 2069 3584 
Q 2775 3584 3186 3129 
Q 3597 2675 3597 1894 
z
M 3022 2063 
Q 3016 2534 2758 2815 
Q 2500 3097 2075 3097 
Q 1594 3097 1305 2825 
Q 1016 2553 972 2059 
L 3022 2063 
z
" transform="scale(0.015625)"/>
       <path id="DejaVuSans-74" d="M 1172 4494 
L 1172 3500 
L 2356 3500 
L 2356 3053 
L 1172 3053 
L 1172 1153 
Q 1172 725 1289 603 
Q 1406 481 1766 481 
L 2356 481 
L 2356 0 
L 1766 0 
Q 1100 0 847 248 
Q 594 497 594 1153 
L 594 3053 
L 172 3053 
L 172 3500 
L 594 3500 
L 594 4494 
L 1172 4494 
z
" transform="scale(0.015625)"/>
       <path id="DejaVuSans-20" transform="scale(0.015625)"/>
       <path id="DejaVuSans-53" d="M 3425 4513 
L 3425 3897 
Q 3066 4069 2747 4153 
Q 2428 4238 2131 4238 
Q 1616 4238 1336 4038 
Q 1056 3838 1056 3469 
Q 1056 3159 1242 3001 
Q 1428 2844 1947 2747 
L 2328 2669 
Q 3034 2534 3370 2195 
Q 3706 1856 3706 1288 
Q 3706 609 3251 259 
Q 2797 -91 1919 -91 
Q 1588 -91 1214 -16 
Q 841 59 441 206 
L 441 856 
Q 825 641 1194 531 
Q 1563 422 1919 422 
Q 2459 422 2753 634 
Q 3047 847 3047 1241 
Q 3047 1584 2836 1778 
Q 2625 1972 2144 2069 
L 1759 2144 
Q 1053 2284 737 2584 
Q 422 2884 422 3419 
Q 422 4038 858 4394 
Q 1294 4750 2059 4750 
Q 2388 4750 2728 4690 
Q 3069 4631 3425 4513 
z
" transform="scale(0.015625)"/>
       <path id="DejaVuSans-69" d="M 603 3500 
L 1178 3500 
L 1178 0 
L 603 0 
L 603 3500 
z
M 603 4863 
L 1178 4863 
L 1178 4134 
L 603 4134 
L 603 4863 
z
" transform="scale(0.015625)"/>
       <path id="DejaVuSans-7a" d="M 353 3500 
L 3084 3500 
L 3084 2975 
L 922 459 
L 3084 459 
L 3084 0 
L 275 0 
L 275 525 
L 2438 3041 
L 353 3041 
L 353 3500 
z
" transform="scale(0.015625)"/>
       <path id="DejaVuSans-28" d="M 1984 4856 
Q 1566 4138 1362 3434 
Q 1159 2731 1159 2009 
Q 1159 1288 1364 580 
Q 1569 -128 1984 -844 
L 1484 -844 
Q 1016 -109 783 600 
Q 550 1309 550 2009 
Q 550 2706 781 3412 
Q 1013 4119 1484 4856 
L 1984 4856 
z
" transform="scale(0.015625)"/>
       <path id="DejaVuSans-4d" d="M 628 4666 
L 1569 4666 
L 2759 1491 
L 3956 4666 
L 4897 4666 
L 4897 0 
L 4281 0 
L 4281 4097 
L 3078 897 
L 2444 897 
L 1241 4097 
L 1241 0 
L 628 0 
L 628 4666 
z
" transform="scale(0.015625)"/>
       <path id="DejaVuSans-29" d="M 513 4856 
L 1013 4856 
Q 1481 4119 1714 3412 
Q 1947 2706 1947 2009 
Q 1947 1309 1714 600 
Q 1481 -109 1013 -844 
L 513 -844 
Q 928 -128 1133 580 
Q 1338 1288 1338 2009 
Q 1338 2731 1133 3434 
Q 928 4138 513 4856 
z
" transform="scale(0.015625)"/>
      </defs>
      <use xlink:href="#DejaVuSans-50"/>
      <use xlink:href="#DejaVuSans-61" x="55.802734"/>
      <use xlink:href="#DejaVuSans-72" x="117.082031"/>
      <use xlink:href="#DejaVuSans-61" x="158.195312"/>
      <use xlink:href="#DejaVuSans-6d" x="219.474609"/>
      <use xlink:href="#DejaVuSans-65" x="316.886719"/>
      <use xlink:href="#DejaVuSans-74" x="378.410156"/>
      <use xlink:href="#DejaVuSans-65" x="417.619141"/>
      <use xlink:href="#DejaVuSans-72" x="479.142578"/>
      <use xlink:href="#DejaVuSans-20" x="520.255859"/>
      <use xlink:href="#DejaVuSans-53" x="552.042969"/>
      <use xlink:href="#DejaVuSans-69" x="615.519531"/>
      <use xlink:href="#DejaVuSans-7a" x="643.302734"/>
      <use xlink:href="#DejaVuSans-65" x="695.792969"/>
      <use xlink:href="#DejaVuSans-28" x="757.316406"/>
      <use xlink:href="#DejaVuSans-4d" x="796.330078"/>
      <use xlink:href="#DejaVuSans-29" x="882.609375"/>
     </g>
    </g>
   </g>
   <g id="matplotlib.axis_2">
    <g id="ytick_1">
     <g id="line2d_19">
      <defs>
       <path id="ma9212e5723" d="M 0 0 
L -3.5 0 
" style="stroke: #000000; stroke-width: 0.8"/>
      </defs>
      <g>
       <use xlink:href="#ma9212e5723" x="51.378125" y="109.967169" style="stroke: #000000; stroke-width: 0.8"/>
      </g>
     </g>
     <g id="text_4">
      <!-- $\mathdefault{10^{-6}}$ -->
      <g transform="translate(20.878125 113.766388) scale(0.1 -0.1)">
       <defs>
        <path id="DejaVuSans-2212" d="M 678 2272 
L 4684 2272 
L 4684 1741 
L 678 1741 
L 678 2272 
z
" transform="scale(0.015625)"/>
        <path id="DejaVuSans-36" d="M 2113 2584 
Q 1688 2584 1439 2293 
Q 1191 2003 1191 1497 
Q 1191 994 1439 701 
Q 1688 409 2113 409 
Q 2538 409 2786 701 
Q 3034 994 3034 1497 
Q 3034 2003 2786 2293 
Q 2538 2584 2113 2584 
z
M 3366 4563 
L 3366 3988 
Q 3128 4100 2886 4159 
Q 2644 4219 2406 4219 
Q 1781 4219 1451 3797 
Q 1122 3375 1075 2522 
Q 1259 2794 1537 2939 
Q 1816 3084 2150 3084 
Q 2853 3084 3261 2657 
Q 3669 2231 3669 1497 
Q 3669 778 3244 343 
Q 2819 -91 2113 -91 
Q 1303 -91 875 529 
Q 447 1150 447 2328 
Q 447 3434 972 4092 
Q 1497 4750 2381 4750 
Q 2619 4750 2861 4703 
Q 3103 4656 3366 4563 
z
" transform="scale(0.015625)"/>
       </defs>
       <use xlink:href="#DejaVuSans-31" transform="translate(0 0.765625)"/>
       <use xlink:href="#DejaVuSans-30" transform="translate(63.623047 0.765625)"/>
       <use xlink:href="#DejaVuSans-2212" transform="translate(128.203125 39.046875) scale(0.7)"/>
       <use xlink:href="#DejaVuSans-36" transform="translate(186.855469 39.046875) scale(0.7)"/>
      </g>
     </g>
    </g>
    <g id="ytick_2">
     <g id="line2d_20">
      <g>
       <use xlink:href="#ma9212e5723" x="51.378125" y="70.001567" style="stroke: #000000; stroke-width: 0.8"/>
      </g>
     </g>
     <g id="text_5">
      <!-- $\mathdefault{10^{-4}}$ -->
      <g transform="translate(20.878125 73.800786) scale(0.1 -0.1)">
       <defs>
        <path id="DejaVuSans-34" d="M 2419 4116 
L 825 1625 
L 2419 1625 
L 2419 4116 
z
M 2253 4666 
L 3047 4666 
L 3047 1625 
L 3713 1625 
L 3713 1100 
L 3047 1100 
L 3047 0 
L 2419 0 
L 2419 1100 
L 313 1100 
L 313 1709 
L 2253 4666 
z
" transform="scale(0.015625)"/>
       </defs>
       <use xlink:href="#DejaVuSans-31" transform="translate(0 0.684375)"/>
       <use xlink:href="#DejaVuSans-30" transform="translate(63.623047 0.684375)"/>
       <use xlink:href="#DejaVuSans-2212" transform="translate(128.203125 38.965625) scale(0.7)"/>
       <use xlink:href="#DejaVuSans-34" transform="translate(186.855469 38.965625) scale(0.7)"/>
      </g>
     </g>
    </g>
    <g id="ytick_3">
     <g id="line2d_21">
      <g>
       <use xlink:href="#ma9212e5723" x="51.378125" y="30.035966" style="stroke: #000000; stroke-width: 0.8"/>
      </g>
     </g>
     <g id="text_6">
      <!-- $\mathdefault{10^{-2}}$ -->
      <g transform="translate(20.878125 33.835184) scale(0.1 -0.1)">
       <use xlink:href="#DejaVuSans-31" transform="translate(0 0.765625)"/>
       <use xlink:href="#DejaVuSans-30" transform="translate(63.623047 0.765625)"/>
       <use xlink:href="#DejaVuSans-2212" transform="translate(128.203125 39.046875) scale(0.7)"/>
       <use xlink:href="#DejaVuSans-32" transform="translate(186.855469 39.046875) scale(0.7)"/>
      </g>
     </g>
    </g>
    <g id="text_7">
     <!-- Loss(L) -->
     <g transform="translate(14.798438 94.154688) rotate(-90) scale(0.1 -0.1)">
      <defs>
       <path id="DejaVuSans-4c" d="M 628 4666 
L 1259 4666 
L 1259 531 
L 3531 531 
L 3531 0 
L 628 0 
L 628 4666 
z
" transform="scale(0.015625)"/>
       <path id="DejaVuSans-6f" d="M 1959 3097 
Q 1497 3097 1228 2736 
Q 959 2375 959 1747 
Q 959 1119 1226 758 
Q 1494 397 1959 397 
Q 2419 397 2687 759 
Q 2956 1122 2956 1747 
Q 2956 2369 2687 2733 
Q 2419 3097 1959 3097 
z
M 1959 3584 
Q 2709 3584 3137 3096 
Q 3566 2609 3566 1747 
Q 3566 888 3137 398 
Q 2709 -91 1959 -91 
Q 1206 -91 779 398 
Q 353 888 353 1747 
Q 353 2609 779 3096 
Q 1206 3584 1959 3584 
z
" transform="scale(0.015625)"/>
       <path id="DejaVuSans-73" d="M 2834 3397 
L 2834 2853 
Q 2591 2978 2328 3040 
Q 2066 3103 1784 3103 
Q 1356 3103 1142 2972 
Q 928 2841 928 2578 
Q 928 2378 1081 2264 
Q 1234 2150 1697 2047 
L 1894 2003 
Q 2506 1872 2764 1633 
Q 3022 1394 3022 966 
Q 3022 478 2636 193 
Q 2250 -91 1575 -91 
Q 1294 -91 989 -36 
Q 684 19 347 128 
L 347 722 
Q 666 556 975 473 
Q 1284 391 1588 391 
Q 1994 391 2212 530 
Q 2431 669 2431 922 
Q 2431 1156 2273 1281 
Q 2116 1406 1581 1522 
L 1381 1569 
Q 847 1681 609 1914 
Q 372 2147 372 2553 
Q 372 3047 722 3315 
Q 1072 3584 1716 3584 
Q 2034 3584 2315 3537 
Q 2597 3491 2834 3397 
z
" transform="scale(0.015625)"/>
      </defs>
      <use xlink:href="#DejaVuSans-4c"/>
      <use xlink:href="#DejaVuSans-6f" x="53.962891"/>
      <use xlink:href="#DejaVuSans-73" x="115.144531"/>
      <use xlink:href="#DejaVuSans-73" x="167.244141"/>
      <use xlink:href="#DejaVuSans-28" x="219.34375"/>
      <use xlink:href="#DejaVuSans-4c" x="258.357422"/>
      <use xlink:href="#DejaVuSans-29" x="314.070312"/>
     </g>
    </g>
   </g>
   <g id="line2d_22">
    <path d="M 60.255398 13.523543 
L 82.929208 30.56035 
L 97.380515 59.44865 
L 116.423532 88.789676 
L 143.221246 107.336028 
L 170.64649 116.64587 
L 207.371109 126.594223 
L 235.320793 139.5 
" clip-path="url(#pe040d935e9)" style="fill: none; stroke-dasharray: 2,3.3; stroke-dashoffset: 0; stroke: #ff0000; stroke-width: 2"/>
    <defs>
     <path id="m62deb24d93" d="M 0 3 
C 0.795609 3 1.55874 2.683901 2.12132 2.12132 
C 2.683901 1.55874 3 0.795609 3 0 
C 3 -0.795609 2.683901 -1.55874 2.12132 -2.12132 
C 1.55874 -2.683901 0.795609 -3 0 -3 
C -0.795609 -3 -1.55874 -2.683901 -2.12132 -2.12132 
C -2.683901 -1.55874 -3 -0.795609 -3 0 
C -3 0.795609 -2.683901 1.55874 -2.12132 2.12132 
C -1.55874 2.683901 -0.795609 3 0 3 
z
" style="stroke: #ff0000"/>
    </defs>
    <g clip-path="url(#pe040d935e9)">
     <use xlink:href="#m62deb24d93" x="60.255398" y="13.523543" style="fill: #ff0000; stroke: #ff0000"/>
     <use xlink:href="#m62deb24d93" x="82.929208" y="30.56035" style="fill: #ff0000; stroke: #ff0000"/>
     <use xlink:href="#m62deb24d93" x="97.380515" y="59.44865" style="fill: #ff0000; stroke: #ff0000"/>
     <use xlink:href="#m62deb24d93" x="116.423532" y="88.789676" style="fill: #ff0000; stroke: #ff0000"/>
     <use xlink:href="#m62deb24d93" x="143.221246" y="107.336028" style="fill: #ff0000; stroke: #ff0000"/>
     <use xlink:href="#m62deb24d93" x="170.64649" y="116.64587" style="fill: #ff0000; stroke: #ff0000"/>
     <use xlink:href="#m62deb24d93" x="207.371109" y="126.594223" style="fill: #ff0000; stroke: #ff0000"/>
     <use xlink:href="#m62deb24d93" x="235.320793" y="139.5" style="fill: #ff0000; stroke: #ff0000"/>
    </g>
   </g>
   <g id="line2d_23">
    <path d="M 60.255398 13.5 
L 82.929208 30.274646 
L 97.380515 58.228058 
L 116.423532 87.984765 
L 143.221246 106.748749 
L 170.64649 115.391758 
L 207.371109 124.385422 
L 235.320793 137.399867 
" clip-path="url(#pe040d935e9)" style="fill: none; stroke: #ff0000; stroke-width: 2; stroke-linecap: square"/>
    <g clip-path="url(#pe040d935e9)">
     <use xlink:href="#m62deb24d93" x="60.255398" y="13.5" style="fill: #ff0000; stroke: #ff0000"/>
     <use xlink:href="#m62deb24d93" x="82.929208" y="30.274646" style="fill: #ff0000; stroke: #ff0000"/>
     <use xlink:href="#m62deb24d93" x="97.380515" y="58.228058" style="fill: #ff0000; stroke: #ff0000"/>
     <use xlink:href="#m62deb24d93" x="116.423532" y="87.984765" style="fill: #ff0000; stroke: #ff0000"/>
     <use xlink:href="#m62deb24d93" x="143.221246" y="106.748749" style="fill: #ff0000; stroke: #ff0000"/>
     <use xlink:href="#m62deb24d93" x="170.64649" y="115.391758" style="fill: #ff0000; stroke: #ff0000"/>
     <use xlink:href="#m62deb24d93" x="207.371109" y="124.385422" style="fill: #ff0000; stroke: #ff0000"/>
     <use xlink:href="#m62deb24d93" x="235.320793" y="137.399867" style="fill: #ff0000; stroke: #ff0000"/>
    </g>
   </g>
   <g id="line2d_24">
    <path d="M 88.339465 39.712722 
L 97.380515 54.763765 
L 111.013275 77.985024 
L 116.423532 87.371938 
L 136.094729 105.003541 
L 159.211349 118.1404 
L 219.955462 113.41435 
" clip-path="url(#pe040d935e9)" style="fill: none; stroke-dasharray: 2,3.3; stroke-dashoffset: 0; stroke: #008000; stroke-width: 2"/>
    <defs>
     <path id="m98372816b6" d="M -0 4.242641 
L 2.545584 0 
L 0 -4.242641 
L -2.545584 -0 
z
" style="stroke: #008000; stroke-linejoin: miter"/>
    </defs>
    <g clip-path="url(#pe040d935e9)">
     <use xlink:href="#m98372816b6" x="88.339465" y="39.712722" style="fill: #008000; stroke: #008000; stroke-linejoin: miter"/>
     <use xlink:href="#m98372816b6" x="97.380515" y="54.763765" style="fill: #008000; stroke: #008000; stroke-linejoin: miter"/>
     <use xlink:href="#m98372816b6" x="111.013275" y="77.985024" style="fill: #008000; stroke: #008000; stroke-linejoin: miter"/>
     <use xlink:href="#m98372816b6" x="116.423532" y="87.371938" style="fill: #008000; stroke: #008000; stroke-linejoin: miter"/>
     <use xlink:href="#m98372816b6" x="136.094729" y="105.003541" style="fill: #008000; stroke: #008000; stroke-linejoin: miter"/>
     <use xlink:href="#m98372816b6" x="159.211349" y="118.1404" style="fill: #008000; stroke: #008000; stroke-linejoin: miter"/>
     <use xlink:href="#m98372816b6" x="219.955462" y="113.41435" style="fill: #008000; stroke: #008000; stroke-linejoin: miter"/>
    </g>
   </g>
   <g id="line2d_25">
    <path d="M 88.339465 38.730652 
L 97.380515 54.605427 
L 111.013275 76.227243 
L 116.423532 86.631427 
L 136.094729 100.325384 
L 159.211349 105.193824 
L 219.955462 23.856915 
" clip-path="url(#pe040d935e9)" style="fill: none; stroke: #008000; stroke-width: 2; stroke-linecap: square"/>
    <g clip-path="url(#pe040d935e9)">
     <use xlink:href="#m98372816b6" x="88.339465" y="38.730652" style="fill: #008000; stroke: #008000; stroke-linejoin: miter"/>
     <use xlink:href="#m98372816b6" x="97.380515" y="54.605427" style="fill: #008000; stroke: #008000; stroke-linejoin: miter"/>
     <use xlink:href="#m98372816b6" x="111.013275" y="76.227243" style="fill: #008000; stroke: #008000; stroke-linejoin: miter"/>
     <use xlink:href="#m98372816b6" x="116.423532" y="86.631427" style="fill: #008000; stroke: #008000; stroke-linejoin: miter"/>
     <use xlink:href="#m98372816b6" x="136.094729" y="100.325384" style="fill: #008000; stroke: #008000; stroke-linejoin: miter"/>
     <use xlink:href="#m98372816b6" x="159.211349" y="105.193824" style="fill: #008000; stroke: #008000; stroke-linejoin: miter"/>
     <use xlink:href="#m98372816b6" x="219.955462" y="23.856915" style="fill: #008000; stroke: #008000; stroke-linejoin: miter"/>
    </g>
   </g>
   <g id="line2d_26">
    <path d="M 116.423532 87.371905 
L 144.5076 93.222343 
L 160.935726 102.361124 
L 172.591667 102.344478 
L 181.632718 107.686541 
L 209.716785 107.250141 
L 237.800852 108.582275 
" clip-path="url(#pe040d935e9)" style="fill: none; stroke-dasharray: 2,3.3; stroke-dashoffset: 0; stroke: #bfbf00; stroke-width: 2"/>
    <defs>
     <path id="m3bdddb092f" d="M 0 -3 
L -3 3 
L 3 3 
z
" style="stroke: #bfbf00; stroke-linejoin: miter"/>
    </defs>
    <g clip-path="url(#pe040d935e9)">
     <use xlink:href="#m3bdddb092f" x="116.423532" y="87.371905" style="fill: #bfbf00; stroke: #bfbf00; stroke-linejoin: miter"/>
     <use xlink:href="#m3bdddb092f" x="144.5076" y="93.222343" style="fill: #bfbf00; stroke: #bfbf00; stroke-linejoin: miter"/>
     <use xlink:href="#m3bdddb092f" x="160.935726" y="102.361124" style="fill: #bfbf00; stroke: #bfbf00; stroke-linejoin: miter"/>
     <use xlink:href="#m3bdddb092f" x="172.591667" y="102.344478" style="fill: #bfbf00; stroke: #bfbf00; stroke-linejoin: miter"/>
     <use xlink:href="#m3bdddb092f" x="181.632718" y="107.686541" style="fill: #bfbf00; stroke: #bfbf00; stroke-linejoin: miter"/>
     <use xlink:href="#m3bdddb092f" x="209.716785" y="107.250141" style="fill: #bfbf00; stroke: #bfbf00; stroke-linejoin: miter"/>
     <use xlink:href="#m3bdddb092f" x="237.800852" y="108.582275" style="fill: #bfbf00; stroke: #bfbf00; stroke-linejoin: miter"/>
    </g>
   </g>
   <g id="line2d_27">
    <path d="M 116.423532 86.631424 
L 144.5076 90.051606 
L 160.935726 99.812233 
L 172.591667 100.416478 
L 181.632718 107.399477 
L 209.716785 107.355673 
L 237.800852 109.407829 
" clip-path="url(#pe040d935e9)" style="fill: none; stroke: #bfbf00; stroke-width: 2; stroke-linecap: square"/>
    <g clip-path="url(#pe040d935e9)">
     <use xlink:href="#m3bdddb092f" x="116.423532" y="86.631424" style="fill: #bfbf00; stroke: #bfbf00; stroke-linejoin: miter"/>
     <use xlink:href="#m3bdddb092f" x="144.5076" y="90.051606" style="fill: #bfbf00; stroke: #bfbf00; stroke-linejoin: miter"/>
     <use xlink:href="#m3bdddb092f" x="160.935726" y="99.812233" style="fill: #bfbf00; stroke: #bfbf00; stroke-linejoin: miter"/>
     <use xlink:href="#m3bdddb092f" x="172.591667" y="100.416478" style="fill: #bfbf00; stroke: #bfbf00; stroke-linejoin: miter"/>
     <use xlink:href="#m3bdddb092f" x="181.632718" y="107.399477" style="fill: #bfbf00; stroke: #bfbf00; stroke-linejoin: miter"/>
     <use xlink:href="#m3bdddb092f" x="209.716785" y="107.355673" style="fill: #bfbf00; stroke: #bfbf00; stroke-linejoin: miter"/>
     <use xlink:href="#m3bdddb092f" x="237.800852" y="109.407829" style="fill: #bfbf00; stroke: #bfbf00; stroke-linejoin: miter"/>
    </g>
   </g>
   <g id="line2d_28">
    <path d="M 88.339465 80.301701 
L 125.464583 120.06148 
" clip-path="url(#pe040d935e9)" style="fill: none; stroke-dasharray: 5.55,2.4; stroke-dashoffset: 0; stroke: #000000; stroke-width: 1.5"/>
   </g>
   <g id="patch_3">
    <path d="M 51.378125 145.8 
L 51.378125 7.2 
" style="fill: none; stroke: #000000; stroke-width: 0.8; stroke-linejoin: miter; stroke-linecap: square"/>
   </g>
   <g id="patch_4">
    <path d="M 246.678125 145.8 
L 246.678125 7.2 
" style="fill: none; stroke: #000000; stroke-width: 0.8; stroke-linejoin: miter; stroke-linecap: square"/>
   </g>
   <g id="patch_5">
    <path d="M 51.378125 145.8 
L 246.678125 145.8 
" style="fill: none; stroke: #000000; stroke-width: 0.8; stroke-linejoin: miter; stroke-linecap: square"/>
   </g>
   <g id="patch_6">
    <path d="M 51.378125 7.2 
L 246.678125 7.2 
" style="fill: none; stroke: #000000; stroke-width: 0.8; stroke-linejoin: miter; stroke-linecap: square"/>
   </g>
   <g id="legend_1">
    <g id="patch_7">
     <path d="M 258.443125 145.8 
L 418.918125 145.8 
Q 420.918125 145.8 420.918125 143.8 
L 420.918125 42.053125 
Q 420.918125 40.053125 418.918125 40.053125 
L 258.443125 40.053125 
Q 256.443125 40.053125 256.443125 42.053125 
L 256.443125 143.8 
Q 256.443125 145.8 258.443125 145.8 
z
" style="fill: #ffffff; opacity: 0.8; stroke: #cccccc; stroke-linejoin: miter"/>
    </g>
    <g id="line2d_29">
     <path d="M 260.443125 48.151563 
L 270.443125 48.151563 
L 280.443125 48.151563 
" style="fill: none; stroke-dasharray: 2,3.3; stroke-dashoffset: 0; stroke: #ff0000; stroke-width: 2"/>
     <g>
      <use xlink:href="#m62deb24d93" x="270.443125" y="48.151563" style="fill: #ff0000; stroke: #ff0000"/>
     </g>
    </g>
    <g id="text_8">
     <!-- MLP Training Loss (Width) -->
     <g transform="translate(288.443125 51.651563) scale(0.1 -0.1)">
      <defs>
       <path id="DejaVuSans-54" d="M -19 4666 
L 3928 4666 
L 3928 4134 
L 2272 4134 
L 2272 0 
L 1638 0 
L 1638 4134 
L -19 4134 
L -19 4666 
z
" transform="scale(0.015625)"/>
       <path id="DejaVuSans-6e" d="M 3513 2113 
L 3513 0 
L 2938 0 
L 2938 2094 
Q 2938 2591 2744 2837 
Q 2550 3084 2163 3084 
Q 1697 3084 1428 2787 
Q 1159 2491 1159 1978 
L 1159 0 
L 581 0 
L 581 3500 
L 1159 3500 
L 1159 2956 
Q 1366 3272 1645 3428 
Q 1925 3584 2291 3584 
Q 2894 3584 3203 3211 
Q 3513 2838 3513 2113 
z
" transform="scale(0.015625)"/>
       <path id="DejaVuSans-67" d="M 2906 1791 
Q 2906 2416 2648 2759 
Q 2391 3103 1925 3103 
Q 1463 3103 1205 2759 
Q 947 2416 947 1791 
Q 947 1169 1205 825 
Q 1463 481 1925 481 
Q 2391 481 2648 825 
Q 2906 1169 2906 1791 
z
M 3481 434 
Q 3481 -459 3084 -895 
Q 2688 -1331 1869 -1331 
Q 1566 -1331 1297 -1286 
Q 1028 -1241 775 -1147 
L 775 -588 
Q 1028 -725 1275 -790 
Q 1522 -856 1778 -856 
Q 2344 -856 2625 -561 
Q 2906 -266 2906 331 
L 2906 616 
Q 2728 306 2450 153 
Q 2172 0 1784 0 
Q 1141 0 747 490 
Q 353 981 353 1791 
Q 353 2603 747 3093 
Q 1141 3584 1784 3584 
Q 2172 3584 2450 3431 
Q 2728 3278 2906 2969 
L 2906 3500 
L 3481 3500 
L 3481 434 
z
" transform="scale(0.015625)"/>
       <path id="DejaVuSans-57" d="M 213 4666 
L 850 4666 
L 1831 722 
L 2809 4666 
L 3519 4666 
L 4500 722 
L 5478 4666 
L 6119 4666 
L 4947 0 
L 4153 0 
L 3169 4050 
L 2175 0 
L 1381 0 
L 213 4666 
z
" transform="scale(0.015625)"/>
       <path id="DejaVuSans-64" d="M 2906 2969 
L 2906 4863 
L 3481 4863 
L 3481 0 
L 2906 0 
L 2906 525 
Q 2725 213 2448 61 
Q 2172 -91 1784 -91 
Q 1150 -91 751 415 
Q 353 922 353 1747 
Q 353 2572 751 3078 
Q 1150 3584 1784 3584 
Q 2172 3584 2448 3432 
Q 2725 3281 2906 2969 
z
M 947 1747 
Q 947 1113 1208 752 
Q 1469 391 1925 391 
Q 2381 391 2643 752 
Q 2906 1113 2906 1747 
Q 2906 2381 2643 2742 
Q 2381 3103 1925 3103 
Q 1469 3103 1208 2742 
Q 947 2381 947 1747 
z
" transform="scale(0.015625)"/>
       <path id="DejaVuSans-68" d="M 3513 2113 
L 3513 0 
L 2938 0 
L 2938 2094 
Q 2938 2591 2744 2837 
Q 2550 3084 2163 3084 
Q 1697 3084 1428 2787 
Q 1159 2491 1159 1978 
L 1159 0 
L 581 0 
L 581 4863 
L 1159 4863 
L 1159 2956 
Q 1366 3272 1645 3428 
Q 1925 3584 2291 3584 
Q 2894 3584 3203 3211 
Q 3513 2838 3513 2113 
z
" transform="scale(0.015625)"/>
      </defs>
      <use xlink:href="#DejaVuSans-4d"/>
      <use xlink:href="#DejaVuSans-4c" x="86.279297"/>
      <use xlink:href="#DejaVuSans-50" x="141.992188"/>
      <use xlink:href="#DejaVuSans-20" x="202.294922"/>
      <use xlink:href="#DejaVuSans-54" x="234.082031"/>
      <use xlink:href="#DejaVuSans-72" x="280.416016"/>
      <use xlink:href="#DejaVuSans-61" x="321.529297"/>
      <use xlink:href="#DejaVuSans-69" x="382.808594"/>
      <use xlink:href="#DejaVuSans-6e" x="410.591797"/>
      <use xlink:href="#DejaVuSans-69" x="473.970703"/>
      <use xlink:href="#DejaVuSans-6e" x="501.753906"/>
      <use xlink:href="#DejaVuSans-67" x="565.132812"/>
      <use xlink:href="#DejaVuSans-20" x="628.609375"/>
      <use xlink:href="#DejaVuSans-4c" x="660.396484"/>
      <use xlink:href="#DejaVuSans-6f" x="714.359375"/>
      <use xlink:href="#DejaVuSans-73" x="775.541016"/>
      <use xlink:href="#DejaVuSans-73" x="827.640625"/>
      <use xlink:href="#DejaVuSans-20" x="879.740234"/>
      <use xlink:href="#DejaVuSans-28" x="911.527344"/>
      <use xlink:href="#DejaVuSans-57" x="950.541016"/>
      <use xlink:href="#DejaVuSans-69" x="1047.167969"/>
      <use xlink:href="#DejaVuSans-64" x="1074.951172"/>
      <use xlink:href="#DejaVuSans-74" x="1138.427734"/>
      <use xlink:href="#DejaVuSans-68" x="1177.636719"/>
      <use xlink:href="#DejaVuSans-29" x="1241.015625"/>
     </g>
    </g>
    <g id="line2d_30">
     <path d="M 260.443125 62.829688 
L 270.443125 62.829688 
L 280.443125 62.829688 
" style="fill: none; stroke: #ff0000; stroke-width: 2; stroke-linecap: square"/>
     <g>
      <use xlink:href="#m62deb24d93" x="270.443125" y="62.829688" style="fill: #ff0000; stroke: #ff0000"/>
     </g>
    </g>
    <g id="text_9">
     <!-- MLP Test Loss (Width) -->
     <g transform="translate(288.443125 66.329688) scale(0.1 -0.1)">
      <use xlink:href="#DejaVuSans-4d"/>
      <use xlink:href="#DejaVuSans-4c" x="86.279297"/>
      <use xlink:href="#DejaVuSans-50" x="141.992188"/>
      <use xlink:href="#DejaVuSans-20" x="202.294922"/>
      <use xlink:href="#DejaVuSans-54" x="234.082031"/>
      <use xlink:href="#DejaVuSans-65" x="278.166016"/>
      <use xlink:href="#DejaVuSans-73" x="339.689453"/>
      <use xlink:href="#DejaVuSans-74" x="391.789062"/>
      <use xlink:href="#DejaVuSans-20" x="430.998047"/>
      <use xlink:href="#DejaVuSans-4c" x="462.785156"/>
      <use xlink:href="#DejaVuSans-6f" x="516.748047"/>
      <use xlink:href="#DejaVuSans-73" x="577.929688"/>
      <use xlink:href="#DejaVuSans-73" x="630.029297"/>
      <use xlink:href="#DejaVuSans-20" x="682.128906"/>
      <use xlink:href="#DejaVuSans-28" x="713.916016"/>
      <use xlink:href="#DejaVuSans-57" x="752.929688"/>
      <use xlink:href="#DejaVuSans-69" x="849.556641"/>
      <use xlink:href="#DejaVuSans-64" x="877.339844"/>
      <use xlink:href="#DejaVuSans-74" x="940.816406"/>
      <use xlink:href="#DejaVuSans-68" x="980.025391"/>
      <use xlink:href="#DejaVuSans-29" x="1043.404297"/>
     </g>
    </g>
    <g id="line2d_31">
     <path d="M 260.443125 77.507813 
L 270.443125 77.507813 
L 280.443125 77.507813 
" style="fill: none; stroke-dasharray: 2,3.3; stroke-dashoffset: 0; stroke: #008000; stroke-width: 2"/>
     <g>
      <use xlink:href="#m98372816b6" x="270.443125" y="77.507813" style="fill: #008000; stroke: #008000; stroke-linejoin: miter"/>
     </g>
    </g>
    <g id="text_10">
     <!-- KAN Training Loss (Grid) -->
     <g transform="translate(288.443125 81.007813) scale(0.1 -0.1)">
      <defs>
       <path id="DejaVuSans-4b" d="M 628 4666 
L 1259 4666 
L 1259 2694 
L 3353 4666 
L 4166 4666 
L 1850 2491 
L 4331 0 
L 3500 0 
L 1259 2247 
L 1259 0 
L 628 0 
L 628 4666 
z
" transform="scale(0.015625)"/>
       <path id="DejaVuSans-41" d="M 2188 4044 
L 1331 1722 
L 3047 1722 
L 2188 4044 
z
M 1831 4666 
L 2547 4666 
L 4325 0 
L 3669 0 
L 3244 1197 
L 1141 1197 
L 716 0 
L 50 0 
L 1831 4666 
z
" transform="scale(0.015625)"/>
       <path id="DejaVuSans-4e" d="M 628 4666 
L 1478 4666 
L 3547 763 
L 3547 4666 
L 4159 4666 
L 4159 0 
L 3309 0 
L 1241 3903 
L 1241 0 
L 628 0 
L 628 4666 
z
" transform="scale(0.015625)"/>
       <path id="DejaVuSans-47" d="M 3809 666 
L 3809 1919 
L 2778 1919 
L 2778 2438 
L 4434 2438 
L 4434 434 
Q 4069 175 3628 42 
Q 3188 -91 2688 -91 
Q 1594 -91 976 548 
Q 359 1188 359 2328 
Q 359 3472 976 4111 
Q 1594 4750 2688 4750 
Q 3144 4750 3555 4637 
Q 3966 4525 4313 4306 
L 4313 3634 
Q 3963 3931 3569 4081 
Q 3175 4231 2741 4231 
Q 1884 4231 1454 3753 
Q 1025 3275 1025 2328 
Q 1025 1384 1454 906 
Q 1884 428 2741 428 
Q 3075 428 3337 486 
Q 3600 544 3809 666 
z
" transform="scale(0.015625)"/>
      </defs>
      <use xlink:href="#DejaVuSans-4b"/>
      <use xlink:href="#DejaVuSans-41" x="63.826172"/>
      <use xlink:href="#DejaVuSans-4e" x="132.234375"/>
      <use xlink:href="#DejaVuSans-20" x="207.039062"/>
      <use xlink:href="#DejaVuSans-54" x="238.826172"/>
      <use xlink:href="#DejaVuSans-72" x="285.160156"/>
      <use xlink:href="#DejaVuSans-61" x="326.273438"/>
      <use xlink:href="#DejaVuSans-69" x="387.552734"/>
      <use xlink:href="#DejaVuSans-6e" x="415.335938"/>
      <use xlink:href="#DejaVuSans-69" x="478.714844"/>
      <use xlink:href="#DejaVuSans-6e" x="506.498047"/>
      <use xlink:href="#DejaVuSans-67" x="569.876953"/>
      <use xlink:href="#DejaVuSans-20" x="633.353516"/>
      <use xlink:href="#DejaVuSans-4c" x="665.140625"/>
      <use xlink:href="#DejaVuSans-6f" x="719.103516"/>
      <use xlink:href="#DejaVuSans-73" x="780.285156"/>
      <use xlink:href="#DejaVuSans-73" x="832.384766"/>
      <use xlink:href="#DejaVuSans-20" x="884.484375"/>
      <use xlink:href="#DejaVuSans-28" x="916.271484"/>
      <use xlink:href="#DejaVuSans-47" x="955.285156"/>
      <use xlink:href="#DejaVuSans-72" x="1032.775391"/>
      <use xlink:href="#DejaVuSans-69" x="1073.888672"/>
      <use xlink:href="#DejaVuSans-64" x="1101.671875"/>
      <use xlink:href="#DejaVuSans-29" x="1165.148438"/>
     </g>
    </g>
    <g id="line2d_32">
     <path d="M 260.443125 92.185938 
L 270.443125 92.185938 
L 280.443125 92.185938 
" style="fill: none; stroke: #008000; stroke-width: 2; stroke-linecap: square"/>
     <g>
      <use xlink:href="#m98372816b6" x="270.443125" y="92.185938" style="fill: #008000; stroke: #008000; stroke-linejoin: miter"/>
     </g>
    </g>
    <g id="text_11">
     <!-- KAN Test Loss (Grid) -->
     <g transform="translate(288.443125 95.685938) scale(0.1 -0.1)">
      <use xlink:href="#DejaVuSans-4b"/>
      <use xlink:href="#DejaVuSans-41" x="63.826172"/>
      <use xlink:href="#DejaVuSans-4e" x="132.234375"/>
      <use xlink:href="#DejaVuSans-20" x="207.039062"/>
      <use xlink:href="#DejaVuSans-54" x="238.826172"/>
      <use xlink:href="#DejaVuSans-65" x="282.910156"/>
      <use xlink:href="#DejaVuSans-73" x="344.433594"/>
      <use xlink:href="#DejaVuSans-74" x="396.533203"/>
      <use xlink:href="#DejaVuSans-20" x="435.742188"/>
      <use xlink:href="#DejaVuSans-4c" x="467.529297"/>
      <use xlink:href="#DejaVuSans-6f" x="521.492188"/>
      <use xlink:href="#DejaVuSans-73" x="582.673828"/>
      <use xlink:href="#DejaVuSans-73" x="634.773438"/>
      <use xlink:href="#DejaVuSans-20" x="686.873047"/>
      <use xlink:href="#DejaVuSans-28" x="718.660156"/>
      <use xlink:href="#DejaVuSans-47" x="757.673828"/>
      <use xlink:href="#DejaVuSans-72" x="835.164062"/>
      <use xlink:href="#DejaVuSans-69" x="876.277344"/>
      <use xlink:href="#DejaVuSans-64" x="904.060547"/>
      <use xlink:href="#DejaVuSans-29" x="967.537109"/>
     </g>
    </g>
    <g id="line2d_33">
     <path d="M 260.443125 106.864063 
L 270.443125 106.864063 
L 280.443125 106.864063 
" style="fill: none; stroke-dasharray: 2,3.3; stroke-dashoffset: 0; stroke: #bfbf00; stroke-width: 2"/>
     <g>
      <use xlink:href="#m3bdddb092f" x="270.443125" y="106.864063" style="fill: #bfbf00; stroke: #bfbf00; stroke-linejoin: miter"/>
     </g>
    </g>
    <g id="text_12">
     <!-- KAN Training Loss (Width) -->
     <g transform="translate(288.443125 110.364063) scale(0.1 -0.1)">
      <use xlink:href="#DejaVuSans-4b"/>
      <use xlink:href="#DejaVuSans-41" x="63.826172"/>
      <use xlink:href="#DejaVuSans-4e" x="132.234375"/>
      <use xlink:href="#DejaVuSans-20" x="207.039062"/>
      <use xlink:href="#DejaVuSans-54" x="238.826172"/>
      <use xlink:href="#DejaVuSans-72" x="285.160156"/>
      <use xlink:href="#DejaVuSans-61" x="326.273438"/>
      <use xlink:href="#DejaVuSans-69" x="387.552734"/>
      <use xlink:href="#DejaVuSans-6e" x="415.335938"/>
      <use xlink:href="#DejaVuSans-69" x="478.714844"/>
      <use xlink:href="#DejaVuSans-6e" x="506.498047"/>
      <use xlink:href="#DejaVuSans-67" x="569.876953"/>
      <use xlink:href="#DejaVuSans-20" x="633.353516"/>
      <use xlink:href="#DejaVuSans-4c" x="665.140625"/>
      <use xlink:href="#DejaVuSans-6f" x="719.103516"/>
      <use xlink:href="#DejaVuSans-73" x="780.285156"/>
      <use xlink:href="#DejaVuSans-73" x="832.384766"/>
      <use xlink:href="#DejaVuSans-20" x="884.484375"/>
      <use xlink:href="#DejaVuSans-28" x="916.271484"/>
      <use xlink:href="#DejaVuSans-57" x="955.285156"/>
      <use xlink:href="#DejaVuSans-69" x="1051.912109"/>
      <use xlink:href="#DejaVuSans-64" x="1079.695312"/>
      <use xlink:href="#DejaVuSans-74" x="1143.171875"/>
      <use xlink:href="#DejaVuSans-68" x="1182.380859"/>
      <use xlink:href="#DejaVuSans-29" x="1245.759766"/>
     </g>
    </g>
    <g id="line2d_34">
     <path d="M 260.443125 121.542188 
L 270.443125 121.542188 
L 280.443125 121.542188 
" style="fill: none; stroke: #bfbf00; stroke-width: 2; stroke-linecap: square"/>
     <g>
      <use xlink:href="#m3bdddb092f" x="270.443125" y="121.542188" style="fill: #bfbf00; stroke: #bfbf00; stroke-linejoin: miter"/>
     </g>
    </g>
    <g id="text_13">
     <!-- KAN Test Loss (Width) -->
     <g transform="translate(288.443125 125.042188) scale(0.1 -0.1)">
      <use xlink:href="#DejaVuSans-4b"/>
      <use xlink:href="#DejaVuSans-41" x="63.826172"/>
      <use xlink:href="#DejaVuSans-4e" x="132.234375"/>
      <use xlink:href="#DejaVuSans-20" x="207.039062"/>
      <use xlink:href="#DejaVuSans-54" x="238.826172"/>
      <use xlink:href="#DejaVuSans-65" x="282.910156"/>
      <use xlink:href="#DejaVuSans-73" x="344.433594"/>
      <use xlink:href="#DejaVuSans-74" x="396.533203"/>
      <use xlink:href="#DejaVuSans-20" x="435.742188"/>
      <use xlink:href="#DejaVuSans-4c" x="467.529297"/>
      <use xlink:href="#DejaVuSans-6f" x="521.492188"/>
      <use xlink:href="#DejaVuSans-73" x="582.673828"/>
      <use xlink:href="#DejaVuSans-73" x="634.773438"/>
      <use xlink:href="#DejaVuSans-20" x="686.873047"/>
      <use xlink:href="#DejaVuSans-28" x="718.660156"/>
      <use xlink:href="#DejaVuSans-57" x="757.673828"/>
      <use xlink:href="#DejaVuSans-69" x="854.300781"/>
      <use xlink:href="#DejaVuSans-64" x="882.083984"/>
      <use xlink:href="#DejaVuSans-74" x="945.560547"/>
      <use xlink:href="#DejaVuSans-68" x="984.769531"/>
      <use xlink:href="#DejaVuSans-29" x="1048.148438"/>
     </g>
    </g>
    <g id="line2d_35">
     <path d="M 260.443125 136.220313 
L 270.443125 136.220313 
L 280.443125 136.220313 
" style="fill: none; stroke-dasharray: 5.55,2.4; stroke-dashoffset: 0; stroke: #000000; stroke-width: 1.5"/>
    </g>
    <g id="text_14">
     <!-- $L = M^{-5}$ -->
     <g transform="translate(288.443125 139.720313) scale(0.1 -0.1)">
      <defs>
       <path id="DejaVuSans-Oblique-4c" d="M 1075 4666 
L 1709 4666 
L 909 525 
L 3181 525 
L 3078 0 
L 172 0 
L 1075 4666 
z
" transform="scale(0.015625)"/>
       <path id="DejaVuSans-3d" d="M 678 2906 
L 4684 2906 
L 4684 2381 
L 678 2381 
L 678 2906 
z
M 678 1631 
L 4684 1631 
L 4684 1100 
L 678 1100 
L 678 1631 
z
" transform="scale(0.015625)"/>
       <path id="DejaVuSans-Oblique-4d" d="M 1081 4666 
L 2028 4666 
L 2572 1522 
L 4378 4666 
L 5350 4666 
L 4441 0 
L 3828 0 
L 4622 4091 
L 2791 897 
L 2175 897 
L 1581 4103 
L 788 0 
L 172 0 
L 1081 4666 
z
" transform="scale(0.015625)"/>
       <path id="DejaVuSans-35" d="M 691 4666 
L 3169 4666 
L 3169 4134 
L 1269 4134 
L 1269 2991 
Q 1406 3038 1543 3061 
Q 1681 3084 1819 3084 
Q 2600 3084 3056 2656 
Q 3513 2228 3513 1497 
Q 3513 744 3044 326 
Q 2575 -91 1722 -91 
Q 1428 -91 1123 -41 
Q 819 9 494 109 
L 494 744 
Q 775 591 1075 516 
Q 1375 441 1709 441 
Q 2250 441 2565 725 
Q 2881 1009 2881 1497 
Q 2881 1984 2565 2268 
Q 2250 2553 1709 2553 
Q 1456 2553 1204 2497 
Q 953 2441 691 2322 
L 691 4666 
z
" transform="scale(0.015625)"/>
      </defs>
      <use xlink:href="#DejaVuSans-Oblique-4c" transform="translate(0 0.684375)"/>
      <use xlink:href="#DejaVuSans-3d" transform="translate(75.195312 0.684375)"/>
      <use xlink:href="#DejaVuSans-Oblique-4d" transform="translate(178.466797 0.684375)"/>
      <use xlink:href="#DejaVuSans-2212" transform="translate(271.762865 38.965625) scale(0.7)"/>
      <use xlink:href="#DejaVuSans-35" transform="translate(330.415208 38.965625) scale(0.7)"/>
     </g>
    </g>
   </g>
  </g>
 </g>
 <defs>
  <clipPath id="pe040d935e9">
   <rect x="51.378125" y="7.2" width="195.3" height="138.6"/>
  </clipPath>
 </defs>
</svg>
